%TF.GenerationSoftware,KiCad,Pcbnew,8.0.5*%
%TF.CreationDate,2024-09-23T14:05:06-05:00*%
%TF.ProjectId,LogicR,4c6f6769-6352-42e6-9b69-6361645f7063,rev?*%
%TF.SameCoordinates,Original*%
%TF.FileFunction,Copper,L2,Bot*%
%TF.FilePolarity,Positive*%
%FSLAX46Y46*%
G04 Gerber Fmt 4.6, Leading zero omitted, Abs format (unit mm)*
G04 Created by KiCad (PCBNEW 8.0.5) date 2024-09-23 14:05:06*
%MOMM*%
%LPD*%
G01*
G04 APERTURE LIST*
G04 Aperture macros list*
%AMRoundRect*
0 Rectangle with rounded corners*
0 $1 Rounding radius*
0 $2 $3 $4 $5 $6 $7 $8 $9 X,Y pos of 4 corners*
0 Add a 4 corners polygon primitive as box body*
4,1,4,$2,$3,$4,$5,$6,$7,$8,$9,$2,$3,0*
0 Add four circle primitives for the rounded corners*
1,1,$1+$1,$2,$3*
1,1,$1+$1,$4,$5*
1,1,$1+$1,$6,$7*
1,1,$1+$1,$8,$9*
0 Add four rect primitives between the rounded corners*
20,1,$1+$1,$2,$3,$4,$5,0*
20,1,$1+$1,$4,$5,$6,$7,0*
20,1,$1+$1,$6,$7,$8,$9,0*
20,1,$1+$1,$8,$9,$2,$3,0*%
G04 Aperture macros list end*
%TA.AperFunction,ComponentPad*%
%ADD10R,1.600000X1.600000*%
%TD*%
%TA.AperFunction,ComponentPad*%
%ADD11C,1.600000*%
%TD*%
%TA.AperFunction,ComponentPad*%
%ADD12R,3.500000X3.500000*%
%TD*%
%TA.AperFunction,ComponentPad*%
%ADD13RoundRect,0.750000X-1.000000X0.750000X-1.000000X-0.750000X1.000000X-0.750000X1.000000X0.750000X0*%
%TD*%
%TA.AperFunction,ComponentPad*%
%ADD14RoundRect,0.875000X-0.875000X0.875000X-0.875000X-0.875000X0.875000X-0.875000X0.875000X0.875000X0*%
%TD*%
%TA.AperFunction,ComponentPad*%
%ADD15O,1.600000X1.600000*%
%TD*%
%TA.AperFunction,ComponentPad*%
%ADD16R,3.000000X3.000000*%
%TD*%
%TA.AperFunction,ComponentPad*%
%ADD17C,3.000000*%
%TD*%
%TA.AperFunction,ComponentPad*%
%ADD18C,1.524000*%
%TD*%
%TA.AperFunction,ComponentPad*%
%ADD19R,1.700000X1.700000*%
%TD*%
%TA.AperFunction,ComponentPad*%
%ADD20O,1.700000X1.700000*%
%TD*%
%TA.AperFunction,ComponentPad*%
%ADD21R,1.530000X1.530000*%
%TD*%
%TA.AperFunction,ComponentPad*%
%ADD22C,1.530000*%
%TD*%
%TA.AperFunction,ViaPad*%
%ADD23C,1.100000*%
%TD*%
%TA.AperFunction,Conductor*%
%ADD24C,1.000000*%
%TD*%
%TA.AperFunction,Conductor*%
%ADD25C,0.600000*%
%TD*%
G04 APERTURE END LIST*
D10*
%TO.P,C4,1*%
%TO.N,+5V*%
X94500000Y-137000000D03*
D11*
%TO.P,C4,2*%
%TO.N,GND*%
X94500000Y-139000000D03*
%TD*%
D10*
%TO.P,C2,1*%
%TO.N,+5V*%
X111000000Y-122455112D03*
D11*
%TO.P,C2,2*%
%TO.N,GND*%
X111000000Y-120455112D03*
%TD*%
D12*
%TO.P,J9,1*%
%TO.N,VDC*%
X129500000Y-59000000D03*
D13*
%TO.P,J9,2*%
%TO.N,GND*%
X129500000Y-53000000D03*
D14*
%TO.P,J9,3*%
X124800000Y-56000000D03*
%TD*%
D10*
%TO.P,U3,1,EN1\u002C2*%
%TO.N,/PWM 1(B)*%
X72500000Y-134000000D03*
D15*
%TO.P,U3,2,1A*%
%TO.N,/1a(Izquierda)*%
X75040000Y-134000000D03*
%TO.P,U3,3,1Y*%
%TO.N,Net-(J11-Pin_4)*%
X77580000Y-134000000D03*
%TO.P,U3,4,GND*%
%TO.N,GND*%
X80120000Y-134000000D03*
%TO.P,U3,5,GND*%
X82660000Y-134000000D03*
%TO.P,U3,6,2Y*%
%TO.N,Net-(J11-Pin_3)*%
X85200000Y-134000000D03*
%TO.P,U3,7,2A*%
%TO.N,/2a(Izquierda)*%
X87740000Y-134000000D03*
%TO.P,U3,8,VCC2*%
%TO.N,+5V*%
X90280000Y-134000000D03*
%TO.P,U3,9,EN3\u002C4*%
%TO.N,/PWM 2(B)*%
X90280000Y-126380000D03*
%TO.P,U3,10,3A*%
%TO.N,/3a(Izquierda)*%
X87740000Y-126380000D03*
%TO.P,U3,11,3Y*%
%TO.N,Net-(J11-Pin_2)*%
X85200000Y-126380000D03*
%TO.P,U3,12,GND*%
%TO.N,GND*%
X82660000Y-126380000D03*
%TO.P,U3,13,GND*%
X80120000Y-126380000D03*
%TO.P,U3,14,4Y*%
%TO.N,Net-(J11-Pin_1)*%
X77580000Y-126380000D03*
%TO.P,U3,15,4A*%
%TO.N,/4a(Izquierda)*%
X75040000Y-126380000D03*
%TO.P,U3,16,VCC1*%
%TO.N,+5V*%
X72500000Y-126380000D03*
%TD*%
D10*
%TO.P,C1,1*%
%TO.N,+5V*%
X72544888Y-122500000D03*
D11*
%TO.P,C1,2*%
%TO.N,GND*%
X72544888Y-120500000D03*
%TD*%
D16*
%TO.P,J11,1,Pin_1*%
%TO.N,Net-(J11-Pin_1)*%
X55000000Y-121840000D03*
D17*
%TO.P,J11,2,Pin_2*%
%TO.N,Net-(J11-Pin_2)*%
X55000000Y-126920000D03*
%TO.P,J11,3,Pin_3*%
%TO.N,Net-(J11-Pin_3)*%
X55000000Y-132000000D03*
%TO.P,J11,4,Pin_4*%
%TO.N,Net-(J11-Pin_4)*%
X55000000Y-137080000D03*
%TD*%
D18*
%TO.P,U4,1,VIN*%
%TO.N,VDC*%
X125570000Y-76650000D03*
%TO.P,U4,2,GND*%
%TO.N,GND*%
X125570000Y-79190000D03*
%TO.P,U4,3,GND*%
X125570000Y-81730000D03*
%TO.P,U4,4,BAT*%
%TO.N,+BATT*%
X125570000Y-84270000D03*
%TO.P,U4,5,GND*%
%TO.N,GND*%
X125570000Y-86810000D03*
%TO.P,U4,6,OUT-5V*%
%TO.N,+5V*%
X125570000Y-89350000D03*
%TD*%
D19*
%TO.P,J1,1,Pin_1*%
%TO.N,/Servo1*%
X78000000Y-53500000D03*
D20*
%TO.P,J1,2,Pin_2*%
%TO.N,+5V*%
X80540000Y-53500000D03*
%TO.P,J1,3,Pin_3*%
%TO.N,GND*%
X83080000Y-53500000D03*
%TO.P,J1,4,Pin_4*%
%TO.N,/Servo2*%
X85620000Y-53500000D03*
%TO.P,J1,5,Pin_5*%
%TO.N,+5V*%
X88160000Y-53500000D03*
%TO.P,J1,6,Pin_6*%
%TO.N,GND*%
X90700000Y-53500000D03*
%TO.P,J1,7,Pin_7*%
%TO.N,/Servo3*%
X93240000Y-53500000D03*
%TO.P,J1,8,Pin_8*%
%TO.N,+5V*%
X95780000Y-53500000D03*
%TO.P,J1,9,Pin_9*%
%TO.N,GND*%
X98320000Y-53500000D03*
%TO.P,J1,10,Pin_10*%
%TO.N,/Servo4*%
X100860000Y-53500000D03*
%TO.P,J1,11,Pin_11*%
%TO.N,+5V*%
X103400000Y-53500000D03*
%TO.P,J1,12,Pin_12*%
%TO.N,GND*%
X105940000Y-53500000D03*
%TD*%
D10*
%TO.P,C3,1*%
%TO.N,+5V*%
X133500000Y-137000000D03*
D11*
%TO.P,C3,2*%
%TO.N,GND*%
X133500000Y-139000000D03*
%TD*%
D17*
%TO.P,BT1,2,-*%
%TO.N,GND*%
X148000000Y-66000000D03*
D16*
%TO.P,BT1,1,+*%
%TO.N,+BATT*%
X148000000Y-71080000D03*
%TD*%
%TO.P,J10,1,Pin_1*%
%TO.N,/pot_1y*%
X147000000Y-137000000D03*
D17*
%TO.P,J10,2,Pin_2*%
%TO.N,/pot_2y*%
X147000000Y-131920000D03*
%TO.P,J10,3,Pin_3*%
%TO.N,/pot_3y*%
X147000000Y-126840000D03*
%TO.P,J10,4,Pin_4*%
%TO.N,/pot_4y*%
X147000000Y-121760000D03*
%TD*%
D10*
%TO.P,U2,1,EN1\u002C2*%
%TO.N,/PWM 1(A)*%
X111760000Y-134000000D03*
D15*
%TO.P,U2,2,1A*%
%TO.N,/1a(Derecha)*%
X114300000Y-134000000D03*
%TO.P,U2,3,1Y*%
%TO.N,/pot_1y*%
X116840000Y-134000000D03*
%TO.P,U2,4,GND*%
%TO.N,GND*%
X119380000Y-134000000D03*
%TO.P,U2,5,GND*%
X121920000Y-134000000D03*
%TO.P,U2,6,2Y*%
%TO.N,/pot_2y*%
X124460000Y-134000000D03*
%TO.P,U2,7,2A*%
%TO.N,/2a(Derecha)*%
X127000000Y-134000000D03*
%TO.P,U2,8,VCC2*%
%TO.N,+5V*%
X129540000Y-134000000D03*
%TO.P,U2,9,EN3\u002C4*%
%TO.N,/PWM 2(A)*%
X129540000Y-126380000D03*
%TO.P,U2,10,3A*%
%TO.N,/3a(Derecha)*%
X127000000Y-126380000D03*
%TO.P,U2,11,3Y*%
%TO.N,/pot_3y*%
X124460000Y-126380000D03*
%TO.P,U2,12,GND*%
%TO.N,GND*%
X121920000Y-126380000D03*
%TO.P,U2,13,GND*%
X119380000Y-126380000D03*
%TO.P,U2,14,4Y*%
%TO.N,/pot_4y*%
X116840000Y-126380000D03*
%TO.P,U2,15,4A*%
%TO.N,/4a(Derecha)*%
X114300000Y-126380000D03*
%TO.P,U2,16,VCC1*%
%TO.N,+5V*%
X111760000Y-126380000D03*
%TD*%
D21*
%TO.P,U1,1,3V3*%
%TO.N,unconnected-(U1-3V3-Pad1)*%
X100200000Y-64572500D03*
D22*
%TO.P,U1,2,EN*%
%TO.N,unconnected-(U1-EN-Pad2)*%
X97660000Y-64572500D03*
%TO.P,U1,3,SENSOR_VP*%
%TO.N,unconnected-(U1-SENSOR_VP-Pad3)*%
X95120000Y-64572500D03*
%TO.P,U1,4,SENSOR_VN*%
%TO.N,unconnected-(U1-SENSOR_VN-Pad4)*%
X92580000Y-64572500D03*
%TO.P,U1,5,IO34*%
%TO.N,unconnected-(U1-IO34-Pad5)*%
X90040000Y-64572500D03*
%TO.P,U1,6,IO35*%
%TO.N,unconnected-(U1-IO35-Pad6)*%
X87500000Y-64572500D03*
%TO.P,U1,7,IO32*%
%TO.N,/Servo4*%
X84960000Y-64572500D03*
%TO.P,U1,8,IO33*%
%TO.N,/Servo3*%
X82420000Y-64572500D03*
%TO.P,U1,9,IO25*%
%TO.N,/Servo2*%
X79880000Y-64572500D03*
%TO.P,U1,10,IO26*%
%TO.N,/Servo1*%
X77340000Y-64572500D03*
%TO.P,U1,11,IO27*%
%TO.N,/1a(Izquierda)*%
X74800000Y-64572500D03*
%TO.P,U1,12,IO14*%
%TO.N,/trig*%
X72260000Y-64572500D03*
%TO.P,U1,13,IO12*%
%TO.N,/echo*%
X69720000Y-64572500D03*
%TO.P,U1,14,GND1*%
%TO.N,GND*%
X67180000Y-64572500D03*
%TO.P,U1,15,IO13*%
%TO.N,/servo5*%
X64640000Y-64572500D03*
%TO.P,U1,16,SD2*%
%TO.N,unconnected-(U1-SD2-Pad16)*%
X62100000Y-64572500D03*
%TO.P,U1,17,SD3*%
%TO.N,unconnected-(U1-SD3-Pad17)*%
X59560000Y-64572500D03*
%TO.P,U1,18,CMD*%
%TO.N,unconnected-(U1-CMD-Pad18)*%
X57020000Y-64572500D03*
%TO.P,U1,19,EXT_5V*%
%TO.N,+5V*%
X54480000Y-64572500D03*
%TO.P,U1,20,CLK*%
%TO.N,unconnected-(U1-CLK-Pad20)*%
X54480000Y-89972500D03*
%TO.P,U1,21,SD0*%
%TO.N,unconnected-(U1-SD0-Pad21)*%
X57020000Y-89972500D03*
%TO.P,U1,22,SD1*%
%TO.N,unconnected-(U1-SD1-Pad22)*%
X59560000Y-89972500D03*
%TO.P,U1,23,IO15*%
%TO.N,/4a(Izquierda)*%
X62100000Y-89972500D03*
%TO.P,U1,24,IO2*%
%TO.N,/3a(Izquierda)*%
X64640000Y-89972500D03*
%TO.P,U1,25,IO0*%
%TO.N,/PWM 1(B)*%
X67180000Y-89972500D03*
%TO.P,U1,26,IO4*%
%TO.N,/PWM 2(B)*%
X69720000Y-89972500D03*
%TO.P,U1,27,IO16*%
%TO.N,/2a(Izquierda)*%
X72260000Y-89972500D03*
%TO.P,U1,28,IO17*%
%TO.N,/2a(Derecha)*%
X74800000Y-89972500D03*
%TO.P,U1,29,IO5*%
%TO.N,/1a(Derecha)*%
X77340000Y-89972500D03*
%TO.P,U1,30,IO18*%
%TO.N,/PWM 1(A)*%
X79880000Y-89972500D03*
%TO.P,U1,31,IO19*%
%TO.N,/4a(Derecha)*%
X82420000Y-89972500D03*
%TO.P,U1,32,GND2*%
%TO.N,GND*%
X84960000Y-89972500D03*
%TO.P,U1,33,IO21*%
%TO.N,unconnected-(U1-IO21-Pad33)*%
X87500000Y-89972500D03*
%TO.P,U1,34,RXD0*%
%TO.N,unconnected-(U1-RXD0-Pad34)*%
X90040000Y-89972500D03*
%TO.P,U1,35,TXD0*%
%TO.N,unconnected-(U1-TXD0-Pad35)*%
X92580000Y-89972500D03*
%TO.P,U1,36,IO22*%
%TO.N,/PWM 2(A)*%
X95120000Y-89972500D03*
%TO.P,U1,37,IO23*%
%TO.N,/3a(Derecha)*%
X97660000Y-89972500D03*
%TO.P,U1,38,GND3*%
%TO.N,unconnected-(U1-GND3-Pad38)*%
X100200000Y-89972500D03*
%TD*%
D19*
%TO.P,J2,1,Pin_1*%
%TO.N,+5V*%
X69740000Y-53500000D03*
D20*
%TO.P,J2,2,Pin_2*%
%TO.N,/trig*%
X67200000Y-53500000D03*
%TO.P,J2,3,Pin_3*%
%TO.N,/echo*%
X64660000Y-53500000D03*
%TO.P,J2,4,Pin_4*%
%TO.N,GND*%
X62120000Y-53500000D03*
%TO.P,J2,5,Pin_5*%
%TO.N,/servo5*%
X59580000Y-53500000D03*
%TO.P,J2,6,Pin_6*%
%TO.N,+5V*%
X57040000Y-53500000D03*
%TO.P,J2,7,Pin_7*%
%TO.N,GND*%
X54500000Y-53500000D03*
%TD*%
D23*
%TO.N,GND*%
X62500000Y-49500000D03*
X80000000Y-123500000D03*
X86351601Y-50500000D03*
X91000000Y-50500000D03*
X106000000Y-50500000D03*
X98500000Y-50500000D03*
X119000000Y-137500000D03*
X54500000Y-57500000D03*
X119500000Y-122500000D03*
X81500000Y-57000000D03*
X80000000Y-136500000D03*
X62000000Y-57500000D03*
%TO.N,+5V*%
X97500000Y-120500000D03*
X87000000Y-105000000D03*
X61500000Y-106000000D03*
X130000000Y-104500000D03*
X102500000Y-104000000D03*
%TO.N,/PWM 1(B)*%
X65000000Y-126000000D03*
X65000000Y-135000000D03*
%TD*%
D24*
%TO.N,GND*%
X82660000Y-134000000D02*
X80120000Y-134000000D01*
X90700000Y-53500000D02*
X90700000Y-50800000D01*
X98320000Y-50680000D02*
X98500000Y-50500000D01*
X54500000Y-53500000D02*
X54500000Y-57500000D01*
X119380000Y-137120000D02*
X119000000Y-137500000D01*
X90700000Y-50800000D02*
X91000000Y-50500000D01*
X111000000Y-117500000D02*
X110500000Y-117000000D01*
X84960000Y-89972500D02*
X84960000Y-87040000D01*
X84960000Y-87040000D02*
X85000000Y-87000000D01*
X121920000Y-124920000D02*
X119500000Y-122500000D01*
X80120000Y-126380000D02*
X80120000Y-123880000D01*
X121920000Y-126380000D02*
X121920000Y-124920000D01*
X80120000Y-136380000D02*
X80000000Y-136500000D01*
X111000000Y-120455112D02*
X111000000Y-117500000D01*
X80120000Y-126380000D02*
X82660000Y-126380000D01*
X98320000Y-53500000D02*
X98320000Y-50680000D01*
X119380000Y-134000000D02*
X119380000Y-137120000D01*
X119380000Y-134000000D02*
X121920000Y-134000000D01*
X62120000Y-53500000D02*
X62120000Y-49880000D01*
X80120000Y-123620000D02*
X80000000Y-123500000D01*
X80120000Y-134000000D02*
X80120000Y-136380000D01*
X119380000Y-126380000D02*
X121920000Y-126380000D01*
X62120000Y-49880000D02*
X62500000Y-49500000D01*
%TO.N,+BATT*%
X147730000Y-84270000D02*
X148500000Y-83500000D01*
X125570000Y-84270000D02*
X147730000Y-84270000D01*
X148500000Y-83500000D02*
X148500000Y-71040000D01*
%TO.N,+5V*%
X135300000Y-137000000D02*
X140500000Y-142200000D01*
X57000000Y-47000000D02*
X57000000Y-48000000D01*
X52500000Y-62592500D02*
X54480000Y-64572500D01*
X52500000Y-47500000D02*
X52500000Y-60500000D01*
X118000000Y-86000000D02*
X118000000Y-85500000D01*
X53000000Y-47000000D02*
X52500000Y-47500000D01*
X94500000Y-137000000D02*
X94500000Y-112500000D01*
X103400000Y-53500000D02*
X103400000Y-47100000D01*
X72544888Y-126335112D02*
X72500000Y-126380000D01*
X104000000Y-105500000D02*
X102500000Y-104000000D01*
X80500000Y-47000000D02*
X69500000Y-47000000D01*
X111000000Y-125620000D02*
X111760000Y-126380000D01*
X80540000Y-53500000D02*
X80540000Y-47040000D01*
X123253500Y-87033500D02*
X119033500Y-87033500D01*
X52500000Y-60500000D02*
X52500000Y-62592500D01*
X69500000Y-47000000D02*
X57000000Y-47000000D01*
X133500000Y-137000000D02*
X132540000Y-137000000D01*
X88000000Y-47000000D02*
X80500000Y-47000000D01*
X69740000Y-53500000D02*
X69740000Y-47240000D01*
X133500000Y-137000000D02*
X135300000Y-137000000D01*
X112800000Y-122455112D02*
X113500000Y-121755112D01*
X88160000Y-47160000D02*
X88000000Y-47000000D01*
X72544888Y-122500000D02*
X72000000Y-122500000D01*
X108700000Y-142200000D02*
X97500000Y-131000000D01*
X69740000Y-47240000D02*
X69500000Y-47000000D01*
X57000000Y-47000000D02*
X53000000Y-47000000D01*
X113500000Y-121755112D02*
X113500000Y-115000000D01*
X57040000Y-48040000D02*
X57040000Y-53500000D01*
X80540000Y-47040000D02*
X80500000Y-47000000D01*
X94500000Y-137000000D02*
X93280000Y-137000000D01*
X95780000Y-47280000D02*
X95500000Y-47000000D01*
X57000000Y-48000000D02*
X57040000Y-48040000D01*
X111000000Y-122455112D02*
X112800000Y-122455112D01*
X72544888Y-122500000D02*
X72544888Y-126335112D01*
X97500000Y-131000000D02*
X97500000Y-120500000D01*
X118000000Y-85500000D02*
X118000000Y-47000000D01*
X111000000Y-122455112D02*
X111000000Y-125620000D01*
X93280000Y-137000000D02*
X90280000Y-134000000D01*
X118000000Y-92500000D02*
X130000000Y-104500000D01*
X118000000Y-47000000D02*
X103500000Y-47000000D01*
X88160000Y-53500000D02*
X88160000Y-47160000D01*
X113500000Y-115000000D02*
X104000000Y-105500000D01*
X94500000Y-112500000D02*
X91500000Y-109500000D01*
X72000000Y-122500000D02*
X61500000Y-112000000D01*
X119033500Y-87033500D02*
X118000000Y-86000000D01*
X118000000Y-85500000D02*
X118000000Y-92500000D01*
X95500000Y-47000000D02*
X88000000Y-47000000D01*
X61500000Y-112000000D02*
X61500000Y-106000000D01*
X125570000Y-89350000D02*
X123253500Y-87033500D01*
X140500000Y-142200000D02*
X108700000Y-142200000D01*
X132540000Y-137000000D02*
X129540000Y-134000000D01*
X103500000Y-47000000D02*
X95500000Y-47000000D01*
X103400000Y-47100000D02*
X103500000Y-47000000D01*
X95780000Y-53500000D02*
X95780000Y-47280000D01*
X91500000Y-109500000D02*
X87000000Y-105000000D01*
D25*
%TO.N,/Servo1*%
X78000000Y-53500000D02*
X78000000Y-63912500D01*
X78000000Y-63912500D02*
X77340000Y-64572500D01*
%TO.N,/Servo4*%
X86279000Y-63253500D02*
X84960000Y-64572500D01*
X100860000Y-53500000D02*
X91106500Y-63253500D01*
X91106500Y-63253500D02*
X86279000Y-63253500D01*
%TO.N,/Servo2*%
X85620000Y-58832500D02*
X79880000Y-64572500D01*
X85620000Y-53500000D02*
X85620000Y-58832500D01*
%TO.N,/Servo3*%
X82420000Y-64320000D02*
X82420000Y-64572500D01*
X93240000Y-53500000D02*
X82420000Y-64320000D01*
%TO.N,/trig*%
X67200000Y-59512500D02*
X72260000Y-64572500D01*
X67200000Y-53500000D02*
X67200000Y-59512500D01*
%TO.N,/echo*%
X64660000Y-53500000D02*
X64660000Y-59512500D01*
X64660000Y-59512500D02*
X69720000Y-64572500D01*
%TO.N,/servo5*%
X59580000Y-59512500D02*
X64640000Y-64572500D01*
X59580000Y-53500000D02*
X59580000Y-59512500D01*
D24*
%TO.N,VDC*%
X125570000Y-62930000D02*
X129500000Y-59000000D01*
X125570000Y-76650000D02*
X125570000Y-62930000D01*
%TO.N,/pot_2y*%
X131946000Y-132446000D02*
X132000000Y-132500000D01*
X149254000Y-134174000D02*
X147000000Y-131920000D01*
X124460000Y-134000000D02*
X126014000Y-132446000D01*
X126014000Y-132446000D02*
X131946000Y-132446000D01*
X144746000Y-139254000D02*
X149254000Y-139254000D01*
X149254000Y-139254000D02*
X149254000Y-134174000D01*
X142500000Y-137008000D02*
X144746000Y-139254000D01*
X142500000Y-132500000D02*
X142500000Y-137008000D01*
X132000000Y-132500000D02*
X142500000Y-132500000D01*
%TO.N,/pot_4y*%
X148500000Y-129500000D02*
X149254000Y-128746000D01*
X149254000Y-124014000D02*
X147000000Y-121760000D01*
X116840000Y-126380000D02*
X119960000Y-129500000D01*
X119960000Y-129500000D02*
X148500000Y-129500000D01*
X149254000Y-128746000D02*
X149254000Y-124014000D01*
%TO.N,/pot_1y*%
X142740362Y-130848000D02*
X147000000Y-135107638D01*
X147000000Y-135107638D02*
X147000000Y-137000000D01*
X142740362Y-130848000D02*
X119992000Y-130848000D01*
X116840000Y-134000000D02*
X119992000Y-130848000D01*
%TO.N,/pot_3y*%
X141500000Y-128000000D02*
X142660000Y-126840000D01*
X126080000Y-128000000D02*
X124460000Y-126380000D01*
X141500000Y-128000000D02*
X126080000Y-128000000D01*
X142660000Y-126840000D02*
X147000000Y-126840000D01*
D25*
%TO.N,/4a(Derecha)*%
X114300000Y-124200000D02*
X115500000Y-123000000D01*
X94000000Y-92000000D02*
X83000000Y-92000000D01*
X82420000Y-91420000D02*
X82420000Y-89972500D01*
X115500000Y-123000000D02*
X115500000Y-113500000D01*
X114300000Y-126380000D02*
X114300000Y-124200000D01*
X83000000Y-92000000D02*
X82420000Y-91420000D01*
X115500000Y-113500000D02*
X94000000Y-92000000D01*
%TO.N,/PWM 2(A)*%
X129540000Y-126380000D02*
X129540000Y-115040000D01*
X102500000Y-88000000D02*
X97092500Y-88000000D01*
X97092500Y-88000000D02*
X95120000Y-89972500D01*
X129540000Y-115040000D02*
X102500000Y-88000000D01*
%TO.N,/PWM 1(B)*%
X53161000Y-88193000D02*
X53354000Y-88000000D01*
X65000000Y-135500000D02*
X65000000Y-135000000D01*
X53161000Y-114161000D02*
X53161000Y-88193000D01*
X66500000Y-137000000D02*
X65000000Y-135500000D01*
X53354000Y-88000000D02*
X65207500Y-88000000D01*
X71000000Y-134000000D02*
X68000000Y-137000000D01*
X68000000Y-137000000D02*
X66500000Y-137000000D01*
X65207500Y-88000000D02*
X67180000Y-89972500D01*
X72500000Y-134000000D02*
X71000000Y-134000000D01*
X65000000Y-126000000D02*
X53161000Y-114161000D01*
%TO.N,/2a(Derecha)*%
X74800000Y-90800000D02*
X74800000Y-89972500D01*
X103500000Y-131500000D02*
X103500000Y-119500000D01*
X121500000Y-139500000D02*
X111500000Y-139500000D01*
X111500000Y-139500000D02*
X103500000Y-131500000D01*
X127000000Y-134000000D02*
X121500000Y-139500000D01*
X103500000Y-119500000D02*
X74800000Y-90800000D01*
%TO.N,/3a(Izquierda)*%
X62000000Y-91937848D02*
X62000000Y-100640000D01*
X64640000Y-89972500D02*
X63965348Y-89972500D01*
X62000000Y-100640000D02*
X87740000Y-126380000D01*
X63965348Y-89972500D02*
X62000000Y-91937848D01*
%TO.N,/PWM 2(B)*%
X69720000Y-92780000D02*
X69720000Y-89972500D01*
X90280000Y-113340000D02*
X69720000Y-92780000D01*
X90280000Y-126380000D02*
X90280000Y-113340000D01*
%TO.N,/4a(Izquierda)*%
X75040000Y-123460000D02*
X75040000Y-126380000D01*
X78500000Y-120000000D02*
X75040000Y-123460000D01*
X62100000Y-89972500D02*
X60500000Y-91572500D01*
X60500000Y-91572500D02*
X60500000Y-102000000D01*
X60500000Y-102000000D02*
X78500000Y-120000000D01*
%TO.N,/1a(Izquierda)*%
X69906000Y-139134000D02*
X53634000Y-139134000D01*
X74427500Y-64572500D02*
X74800000Y-64572500D01*
X53634000Y-139134000D02*
X52000000Y-137500000D01*
X52000000Y-87000000D02*
X74427500Y-64572500D01*
X75040000Y-134000000D02*
X69906000Y-139134000D01*
X52000000Y-137500000D02*
X52000000Y-87000000D01*
%TO.N,/2a(Izquierda)*%
X72260000Y-92260000D02*
X72260000Y-89972500D01*
X87740000Y-134000000D02*
X87740000Y-128240000D01*
X90574846Y-128000000D02*
X91634000Y-126940846D01*
X91634000Y-126940846D02*
X91634000Y-111634000D01*
X91634000Y-111634000D02*
X72260000Y-92260000D01*
X87980000Y-128000000D02*
X90574846Y-128000000D01*
X87740000Y-128240000D02*
X87980000Y-128000000D01*
%TO.N,/3a(Derecha)*%
X127000000Y-120000000D02*
X98500000Y-91500000D01*
X127000000Y-126380000D02*
X127000000Y-120000000D01*
X98500000Y-90812500D02*
X97660000Y-89972500D01*
X98500000Y-91500000D02*
X98500000Y-90812500D01*
%TO.N,/1a(Derecha)*%
X77340000Y-89972500D02*
X77340000Y-91547738D01*
X106000000Y-131000000D02*
X110354000Y-135354000D01*
X84500000Y-95000000D02*
X106000000Y-116500000D01*
X112946000Y-135354000D02*
X114300000Y-134000000D01*
X80792262Y-95000000D02*
X84500000Y-95000000D01*
X110354000Y-135354000D02*
X112946000Y-135354000D01*
X106000000Y-116500000D02*
X106000000Y-131000000D01*
X77340000Y-91547738D02*
X80792262Y-95000000D01*
%TO.N,/PWM 1(A)*%
X111760000Y-134000000D02*
X108000000Y-130240000D01*
X84500000Y-93500000D02*
X81000000Y-93500000D01*
X81000000Y-93500000D02*
X79880000Y-92380000D01*
X79880000Y-92380000D02*
X79880000Y-89972500D01*
X108000000Y-117000000D02*
X84500000Y-93500000D01*
X108000000Y-130240000D02*
X108000000Y-117000000D01*
D24*
%TO.N,Net-(J11-Pin_3)*%
X58754000Y-132000000D02*
X55000000Y-132000000D01*
X60000000Y-130754000D02*
X58754000Y-132000000D01*
X81954000Y-130754000D02*
X60000000Y-130754000D01*
X85200000Y-134000000D02*
X81954000Y-130754000D01*
%TO.N,Net-(J11-Pin_4)*%
X58000000Y-135500000D02*
X58000000Y-137000000D01*
X76026000Y-132446000D02*
X70054000Y-132446000D01*
X77580000Y-134000000D02*
X76026000Y-132446000D01*
X55080000Y-137000000D02*
X55000000Y-137080000D01*
X70000000Y-132500000D02*
X61000000Y-132500000D01*
X70054000Y-132446000D02*
X70000000Y-132500000D01*
X58000000Y-137000000D02*
X55080000Y-137000000D01*
X61000000Y-132500000D02*
X58000000Y-135500000D01*
%TO.N,Net-(J11-Pin_2)*%
X60000000Y-129500000D02*
X57420000Y-126920000D01*
X57420000Y-126920000D02*
X55000000Y-126920000D01*
X85200000Y-126380000D02*
X82080000Y-129500000D01*
X82080000Y-129500000D02*
X60000000Y-129500000D01*
%TO.N,Net-(J11-Pin_1)*%
X77500000Y-128000000D02*
X60500000Y-128000000D01*
X60500000Y-128000000D02*
X60500000Y-124500000D01*
X60500000Y-124500000D02*
X57840000Y-121840000D01*
X77580000Y-126380000D02*
X77580000Y-127920000D01*
X57840000Y-121840000D02*
X55000000Y-121840000D01*
X77580000Y-127920000D02*
X77500000Y-128000000D01*
%TD*%
%TA.AperFunction,NonConductor*%
G36*
X107943039Y-68019685D02*
G01*
X107988794Y-68072489D01*
X108000000Y-68124000D01*
X108000000Y-86376000D01*
X107980315Y-86443039D01*
X107927511Y-86488794D01*
X107876000Y-86500000D01*
X90124000Y-86500000D01*
X90056961Y-86480315D01*
X90011206Y-86427511D01*
X90000000Y-86376000D01*
X90000000Y-68124000D01*
X90019685Y-68056961D01*
X90072489Y-68011206D01*
X90124000Y-68000000D01*
X107876000Y-68000000D01*
X107943039Y-68019685D01*
G37*
%TD.AperFunction*%
%TA.AperFunction,Conductor*%
%TO.N,GND*%
G36*
X52690614Y-45520185D02*
G01*
X52736369Y-45572989D01*
X52746313Y-45642147D01*
X52717288Y-45705703D01*
X52661893Y-45742431D01*
X52500784Y-45794777D01*
X52500781Y-45794778D01*
X52373761Y-45859500D01*
X52318386Y-45887715D01*
X52152788Y-46008027D01*
X52012372Y-46148443D01*
X52012329Y-46148483D01*
X51508032Y-46652782D01*
X51508028Y-46652787D01*
X51387720Y-46818378D01*
X51387711Y-46818392D01*
X51368821Y-46855464D01*
X51368822Y-46855465D01*
X51294781Y-47000776D01*
X51231522Y-47195465D01*
X51199500Y-47397648D01*
X51199500Y-62694851D01*
X51231522Y-62897034D01*
X51294781Y-63091723D01*
X51314221Y-63129875D01*
X51333081Y-63166889D01*
X51387713Y-63274111D01*
X51508034Y-63439719D01*
X51508036Y-63439721D01*
X52917697Y-64849382D01*
X52950589Y-64908114D01*
X52984112Y-65047745D01*
X52986518Y-65057766D01*
X53080813Y-65285416D01*
X53080815Y-65285419D01*
X53209563Y-65495518D01*
X53209564Y-65495520D01*
X53227700Y-65516754D01*
X53369601Y-65682899D01*
X53466612Y-65765754D01*
X53556979Y-65842935D01*
X53556981Y-65842936D01*
X53767079Y-65971684D01*
X53994735Y-66065982D01*
X53994736Y-66065982D01*
X53994738Y-66065983D01*
X54234345Y-66123507D01*
X54480000Y-66142841D01*
X54725655Y-66123507D01*
X54965262Y-66065983D01*
X55192920Y-65971684D01*
X55403023Y-65842933D01*
X55590399Y-65682899D01*
X55655711Y-65606427D01*
X55714216Y-65568236D01*
X55784084Y-65567736D01*
X55843130Y-65605090D01*
X55844216Y-65606342D01*
X55900469Y-65672207D01*
X55909601Y-65682899D01*
X56096979Y-65842935D01*
X56096981Y-65842936D01*
X56307079Y-65971684D01*
X56534735Y-66065982D01*
X56534736Y-66065982D01*
X56534738Y-66065983D01*
X56774345Y-66123507D01*
X57020000Y-66142841D01*
X57265655Y-66123507D01*
X57505262Y-66065983D01*
X57732920Y-65971684D01*
X57943023Y-65842933D01*
X58130399Y-65682899D01*
X58195711Y-65606427D01*
X58254216Y-65568236D01*
X58324084Y-65567736D01*
X58383130Y-65605090D01*
X58384216Y-65606342D01*
X58440469Y-65672207D01*
X58449601Y-65682899D01*
X58636979Y-65842935D01*
X58636981Y-65842936D01*
X58847079Y-65971684D01*
X59074735Y-66065982D01*
X59074736Y-66065982D01*
X59074738Y-66065983D01*
X59314345Y-66123507D01*
X59560000Y-66142841D01*
X59805655Y-66123507D01*
X60045262Y-66065983D01*
X60272920Y-65971684D01*
X60483023Y-65842933D01*
X60670399Y-65682899D01*
X60735711Y-65606427D01*
X60794216Y-65568236D01*
X60864084Y-65567736D01*
X60923130Y-65605090D01*
X60924216Y-65606342D01*
X60980469Y-65672207D01*
X60989601Y-65682899D01*
X61176979Y-65842935D01*
X61176981Y-65842936D01*
X61387079Y-65971684D01*
X61614735Y-66065982D01*
X61614736Y-66065982D01*
X61614738Y-66065983D01*
X61854345Y-66123507D01*
X62100000Y-66142841D01*
X62345655Y-66123507D01*
X62585262Y-66065983D01*
X62812920Y-65971684D01*
X63023023Y-65842933D01*
X63210399Y-65682899D01*
X63275711Y-65606427D01*
X63334216Y-65568236D01*
X63404084Y-65567736D01*
X63463130Y-65605090D01*
X63464216Y-65606342D01*
X63520469Y-65672207D01*
X63529601Y-65682899D01*
X63716979Y-65842935D01*
X63716981Y-65842936D01*
X63927079Y-65971684D01*
X64154735Y-66065982D01*
X64154736Y-66065982D01*
X64154738Y-66065983D01*
X64394345Y-66123507D01*
X64640000Y-66142841D01*
X64885655Y-66123507D01*
X65125262Y-66065983D01*
X65352920Y-65971684D01*
X65563023Y-65842933D01*
X65750399Y-65682899D01*
X65910433Y-65495523D01*
X66010830Y-65331688D01*
X66062641Y-65284815D01*
X66125687Y-65273259D01*
X66688871Y-64710074D01*
X66704755Y-64769353D01*
X66771898Y-64885647D01*
X66866853Y-64980602D01*
X66983147Y-65047745D01*
X67042424Y-65063628D01*
X66479656Y-65626394D01*
X66545083Y-65672206D01*
X66545085Y-65672207D01*
X66745690Y-65765750D01*
X66745699Y-65765754D01*
X66959490Y-65823038D01*
X66959500Y-65823040D01*
X67179999Y-65842332D01*
X67180001Y-65842332D01*
X67400499Y-65823040D01*
X67400509Y-65823038D01*
X67614300Y-65765754D01*
X67614309Y-65765750D01*
X67814915Y-65672206D01*
X67880342Y-65626394D01*
X67317575Y-65063627D01*
X67376853Y-65047745D01*
X67493147Y-64980602D01*
X67588102Y-64885647D01*
X67655245Y-64769353D01*
X67671128Y-64710075D01*
X68234348Y-65273296D01*
X68301134Y-65286718D01*
X68349169Y-65331688D01*
X68449567Y-65495523D01*
X68609601Y-65682899D01*
X68706612Y-65765754D01*
X68796979Y-65842935D01*
X68796981Y-65842936D01*
X69007079Y-65971684D01*
X69234735Y-66065982D01*
X69234736Y-66065982D01*
X69234738Y-66065983D01*
X69474345Y-66123507D01*
X69720000Y-66142841D01*
X69965655Y-66123507D01*
X70205262Y-66065983D01*
X70432920Y-65971684D01*
X70643023Y-65842933D01*
X70830399Y-65682899D01*
X70895711Y-65606427D01*
X70954216Y-65568236D01*
X71024084Y-65567736D01*
X71083130Y-65605090D01*
X71084216Y-65606342D01*
X71149601Y-65682899D01*
X71246607Y-65765750D01*
X71336974Y-65842931D01*
X71336975Y-65842932D01*
X71366395Y-65860960D01*
X71413271Y-65912771D01*
X71424694Y-65981701D01*
X71397038Y-66045864D01*
X71389287Y-66054369D01*
X51283072Y-86160586D01*
X51160588Y-86283069D01*
X51160588Y-86283070D01*
X51160586Y-86283072D01*
X51116859Y-86343256D01*
X51058768Y-86423211D01*
X50980128Y-86577552D01*
X50926597Y-86742302D01*
X50899500Y-86913389D01*
X50899500Y-137586610D01*
X50915813Y-137689611D01*
X50926598Y-137757701D01*
X50980127Y-137922445D01*
X51058768Y-138076788D01*
X51160586Y-138216928D01*
X52917072Y-139973414D01*
X53057212Y-140075232D01*
X53211555Y-140153873D01*
X53376299Y-140207402D01*
X53547389Y-140234500D01*
X53547390Y-140234500D01*
X69992610Y-140234500D01*
X69992611Y-140234500D01*
X70163701Y-140207402D01*
X70328445Y-140153873D01*
X70482788Y-140075232D01*
X70622928Y-139973414D01*
X74954573Y-135641767D01*
X75015896Y-135608283D01*
X75035172Y-135606210D01*
X75035143Y-135605831D01*
X75039998Y-135605448D01*
X75040000Y-135605449D01*
X75291148Y-135585683D01*
X75536111Y-135526873D01*
X75768859Y-135430466D01*
X75983659Y-135298836D01*
X76175224Y-135135224D01*
X76215710Y-135087819D01*
X76274216Y-135049627D01*
X76344084Y-135049128D01*
X76403130Y-135086482D01*
X76404235Y-135087756D01*
X76440429Y-135130134D01*
X76444776Y-135135224D01*
X76636343Y-135298838D01*
X76636346Y-135298839D01*
X76851140Y-135430466D01*
X76956751Y-135474211D01*
X77083889Y-135526873D01*
X77328852Y-135585683D01*
X77580000Y-135605449D01*
X77831148Y-135585683D01*
X78076111Y-135526873D01*
X78308859Y-135430466D01*
X78523659Y-135298836D01*
X78715224Y-135135224D01*
X78878836Y-134943659D01*
X78928249Y-134863023D01*
X78980058Y-134816150D01*
X79048988Y-134804727D01*
X79113151Y-134832384D01*
X79121656Y-134840134D01*
X79281179Y-134999657D01*
X79467517Y-135130134D01*
X79673673Y-135226265D01*
X79673682Y-135226269D01*
X79869999Y-135278872D01*
X79870000Y-135278871D01*
X79870000Y-134315686D01*
X79874394Y-134320080D01*
X79965606Y-134372741D01*
X80067339Y-134400000D01*
X80172661Y-134400000D01*
X80274394Y-134372741D01*
X80365606Y-134320080D01*
X80370000Y-134315686D01*
X80370000Y-135278872D01*
X80566317Y-135226269D01*
X80566326Y-135226265D01*
X80772482Y-135130134D01*
X80958820Y-134999657D01*
X81119657Y-134838820D01*
X81250134Y-134652481D01*
X81250135Y-134652479D01*
X81277618Y-134593543D01*
X81323790Y-134541103D01*
X81390983Y-134521951D01*
X81457864Y-134542166D01*
X81502382Y-134593543D01*
X81529864Y-134652479D01*
X81529865Y-134652481D01*
X81660342Y-134838820D01*
X81821179Y-134999657D01*
X82007517Y-135130134D01*
X82213673Y-135226265D01*
X82213682Y-135226269D01*
X82409999Y-135278872D01*
X82410000Y-135278871D01*
X82410000Y-134315686D01*
X82414394Y-134320080D01*
X82505606Y-134372741D01*
X82607339Y-134400000D01*
X82712661Y-134400000D01*
X82814394Y-134372741D01*
X82905606Y-134320080D01*
X82910000Y-134315686D01*
X82910000Y-135278872D01*
X83106317Y-135226269D01*
X83106326Y-135226265D01*
X83312482Y-135130134D01*
X83498820Y-134999657D01*
X83658343Y-134840135D01*
X83719666Y-134806650D01*
X83789358Y-134811634D01*
X83845291Y-134853506D01*
X83851751Y-134863026D01*
X83901160Y-134943653D01*
X83901161Y-134943656D01*
X83929999Y-134977421D01*
X84064776Y-135135224D01*
X84182082Y-135235413D01*
X84256343Y-135298838D01*
X84256346Y-135298839D01*
X84471140Y-135430466D01*
X84576751Y-135474211D01*
X84703889Y-135526873D01*
X84948852Y-135585683D01*
X85200000Y-135605449D01*
X85451148Y-135585683D01*
X85696111Y-135526873D01*
X85928859Y-135430466D01*
X86143659Y-135298836D01*
X86335224Y-135135224D01*
X86375710Y-135087819D01*
X86434216Y-135049627D01*
X86504084Y-135049128D01*
X86563130Y-135086482D01*
X86564235Y-135087756D01*
X86600429Y-135130134D01*
X86604776Y-135135224D01*
X86796343Y-135298838D01*
X86796346Y-135298839D01*
X87011140Y-135430466D01*
X87116751Y-135474211D01*
X87243889Y-135526873D01*
X87488852Y-135585683D01*
X87740000Y-135605449D01*
X87991148Y-135585683D01*
X88236111Y-135526873D01*
X88468859Y-135430466D01*
X88683659Y-135298836D01*
X88875224Y-135135224D01*
X88915710Y-135087819D01*
X88974216Y-135049627D01*
X89044084Y-135049128D01*
X89103130Y-135086482D01*
X89104235Y-135087756D01*
X89140429Y-135130134D01*
X89144776Y-135135224D01*
X89336343Y-135298838D01*
X89336346Y-135298839D01*
X89551140Y-135430466D01*
X89656751Y-135474211D01*
X89783889Y-135526873D01*
X89991749Y-135576775D01*
X90050483Y-135609668D01*
X92284908Y-137844092D01*
X92284922Y-137844107D01*
X92288033Y-137847218D01*
X92288034Y-137847219D01*
X92432781Y-137991966D01*
X92432784Y-137991968D01*
X92432788Y-137991972D01*
X92549529Y-138076788D01*
X92598390Y-138112287D01*
X92703846Y-138166020D01*
X92780781Y-138205221D01*
X92780784Y-138205222D01*
X92955636Y-138262034D01*
X92975466Y-138268477D01*
X93008074Y-138273641D01*
X93071206Y-138303569D01*
X93076355Y-138308433D01*
X93197738Y-138429816D01*
X93213698Y-138439844D01*
X93259989Y-138492179D01*
X93270637Y-138561232D01*
X93267501Y-138576931D01*
X93214860Y-138773389D01*
X93214858Y-138773400D01*
X93195034Y-138999997D01*
X93195034Y-139000002D01*
X93214858Y-139226599D01*
X93214860Y-139226610D01*
X93273730Y-139446317D01*
X93273735Y-139446331D01*
X93369863Y-139652478D01*
X93420974Y-139725472D01*
X94100000Y-139046446D01*
X94100000Y-139052661D01*
X94127259Y-139154394D01*
X94179920Y-139245606D01*
X94254394Y-139320080D01*
X94345606Y-139372741D01*
X94447339Y-139400000D01*
X94453553Y-139400000D01*
X93774526Y-140079025D01*
X93847513Y-140130132D01*
X93847521Y-140130136D01*
X94053668Y-140226264D01*
X94053682Y-140226269D01*
X94273389Y-140285139D01*
X94273400Y-140285141D01*
X94499998Y-140304966D01*
X94500002Y-140304966D01*
X94726599Y-140285141D01*
X94726610Y-140285139D01*
X94946317Y-140226269D01*
X94946331Y-140226264D01*
X95152478Y-140130136D01*
X95225471Y-140079024D01*
X94546447Y-139400000D01*
X94552661Y-139400000D01*
X94654394Y-139372741D01*
X94745606Y-139320080D01*
X94820080Y-139245606D01*
X94872741Y-139154394D01*
X94900000Y-139052661D01*
X94900000Y-139046447D01*
X95579024Y-139725471D01*
X95630136Y-139652478D01*
X95726264Y-139446331D01*
X95726269Y-139446317D01*
X95785139Y-139226610D01*
X95785141Y-139226599D01*
X95804966Y-139000002D01*
X95804966Y-138999997D01*
X95785141Y-138773400D01*
X95785140Y-138773393D01*
X95732498Y-138576932D01*
X95734161Y-138507082D01*
X95773323Y-138449219D01*
X95786295Y-138439848D01*
X95802262Y-138429816D01*
X95929816Y-138302262D01*
X96025789Y-138149522D01*
X96085368Y-137979255D01*
X96100500Y-137844954D01*
X96100500Y-136155046D01*
X96093176Y-136090046D01*
X96085369Y-136020750D01*
X96085368Y-136020745D01*
X96050970Y-135922441D01*
X96025789Y-135850478D01*
X95929816Y-135697738D01*
X95836818Y-135604740D01*
X95803334Y-135543416D01*
X95800500Y-135517059D01*
X95800500Y-113656204D01*
X95820185Y-113589165D01*
X95872989Y-113543410D01*
X95942147Y-113533466D01*
X96005703Y-113562491D01*
X96012181Y-113568523D01*
X102363181Y-119919523D01*
X102396666Y-119980846D01*
X102399500Y-120007204D01*
X102399500Y-131586610D01*
X102414546Y-131681611D01*
X102426598Y-131757701D01*
X102480127Y-131922445D01*
X102558768Y-132076788D01*
X102660586Y-132216928D01*
X110660585Y-140216927D01*
X110660586Y-140216928D01*
X110783072Y-140339414D01*
X110923212Y-140441232D01*
X111077555Y-140519873D01*
X111242299Y-140573402D01*
X111413389Y-140600500D01*
X111413390Y-140600500D01*
X121586610Y-140600500D01*
X121586611Y-140600500D01*
X121757701Y-140573402D01*
X121922445Y-140519873D01*
X122076788Y-140441232D01*
X122216928Y-140339414D01*
X126914573Y-135641767D01*
X126975896Y-135608283D01*
X126995172Y-135606210D01*
X126995143Y-135605831D01*
X126999998Y-135605448D01*
X127000000Y-135605449D01*
X127251148Y-135585683D01*
X127496111Y-135526873D01*
X127728859Y-135430466D01*
X127943659Y-135298836D01*
X128135224Y-135135224D01*
X128175710Y-135087819D01*
X128234216Y-135049627D01*
X128304084Y-135049128D01*
X128363130Y-135086482D01*
X128364235Y-135087756D01*
X128400429Y-135130134D01*
X128404776Y-135135224D01*
X128596343Y-135298838D01*
X128596346Y-135298839D01*
X128811140Y-135430466D01*
X128916751Y-135474211D01*
X129043889Y-135526873D01*
X129251749Y-135576775D01*
X129310483Y-135609668D01*
X131544908Y-137844092D01*
X131544922Y-137844107D01*
X131548033Y-137847218D01*
X131548034Y-137847219D01*
X131692781Y-137991966D01*
X131692784Y-137991968D01*
X131692788Y-137991972D01*
X131858385Y-138112284D01*
X131858387Y-138112285D01*
X131858390Y-138112287D01*
X131963849Y-138166021D01*
X132012546Y-138210532D01*
X132070184Y-138302262D01*
X132197738Y-138429816D01*
X132213698Y-138439844D01*
X132259989Y-138492179D01*
X132270637Y-138561232D01*
X132267501Y-138576931D01*
X132214860Y-138773389D01*
X132214858Y-138773400D01*
X132195034Y-138999997D01*
X132195034Y-139000002D01*
X132214858Y-139226599D01*
X132214860Y-139226610D01*
X132273730Y-139446317D01*
X132273735Y-139446331D01*
X132369863Y-139652478D01*
X132420974Y-139725472D01*
X133100000Y-139046446D01*
X133100000Y-139052661D01*
X133127259Y-139154394D01*
X133179920Y-139245606D01*
X133254394Y-139320080D01*
X133345606Y-139372741D01*
X133447339Y-139400000D01*
X133453553Y-139400000D01*
X132774526Y-140079025D01*
X132847513Y-140130132D01*
X132847521Y-140130136D01*
X133053668Y-140226264D01*
X133053682Y-140226269D01*
X133273389Y-140285139D01*
X133273400Y-140285141D01*
X133499998Y-140304966D01*
X133500002Y-140304966D01*
X133726599Y-140285141D01*
X133726610Y-140285139D01*
X133946317Y-140226269D01*
X133946331Y-140226264D01*
X134152478Y-140130136D01*
X134225471Y-140079024D01*
X133546447Y-139400000D01*
X133552661Y-139400000D01*
X133654394Y-139372741D01*
X133745606Y-139320080D01*
X133820080Y-139245606D01*
X133872741Y-139154394D01*
X133900000Y-139052661D01*
X133900000Y-139046447D01*
X134579024Y-139725471D01*
X134630136Y-139652478D01*
X134726264Y-139446331D01*
X134726269Y-139446317D01*
X134785139Y-139226610D01*
X134785141Y-139226599D01*
X134804966Y-139000002D01*
X134804966Y-138999997D01*
X134785141Y-138773400D01*
X134785140Y-138773393D01*
X134740544Y-138606960D01*
X134742207Y-138537110D01*
X134781369Y-138479247D01*
X134845598Y-138451743D01*
X134914500Y-138463329D01*
X134948000Y-138487185D01*
X137148635Y-140687819D01*
X137182120Y-140749142D01*
X137177136Y-140818834D01*
X137135264Y-140874767D01*
X137069800Y-140899184D01*
X137060954Y-140899500D01*
X109290047Y-140899500D01*
X109223008Y-140879815D01*
X109202366Y-140863181D01*
X98836819Y-130497634D01*
X98803334Y-130436311D01*
X98800500Y-130409953D01*
X98800500Y-120880724D01*
X98804725Y-120848631D01*
X98835063Y-120735408D01*
X98855659Y-120500000D01*
X98835063Y-120264592D01*
X98773903Y-120036337D01*
X98674035Y-119822171D01*
X98660349Y-119802624D01*
X98538494Y-119628597D01*
X98371402Y-119461506D01*
X98371395Y-119461501D01*
X98177834Y-119325967D01*
X98177830Y-119325965D01*
X98168027Y-119321394D01*
X97963663Y-119226097D01*
X97963659Y-119226096D01*
X97963655Y-119226094D01*
X97735413Y-119164938D01*
X97735403Y-119164936D01*
X97500001Y-119144341D01*
X97499999Y-119144341D01*
X97264596Y-119164936D01*
X97264586Y-119164938D01*
X97036344Y-119226094D01*
X97036335Y-119226098D01*
X96822171Y-119325964D01*
X96822169Y-119325965D01*
X96628597Y-119461505D01*
X96461505Y-119628597D01*
X96325965Y-119822169D01*
X96325964Y-119822171D01*
X96226098Y-120036335D01*
X96226094Y-120036344D01*
X96164938Y-120264586D01*
X96164936Y-120264596D01*
X96144341Y-120499999D01*
X96144341Y-120500000D01*
X96164936Y-120735403D01*
X96164938Y-120735412D01*
X96168709Y-120749484D01*
X96189707Y-120827853D01*
X96195275Y-120848631D01*
X96199500Y-120880724D01*
X96199500Y-130897648D01*
X96199500Y-131102352D01*
X96231523Y-131304535D01*
X96236025Y-131318390D01*
X96294780Y-131499219D01*
X96339309Y-131586611D01*
X96387713Y-131681611D01*
X96508034Y-131847219D01*
X107852781Y-143191966D01*
X108018389Y-143312287D01*
X108109585Y-143358753D01*
X108200780Y-143405220D01*
X108200786Y-143405222D01*
X108251147Y-143421584D01*
X108298121Y-143436847D01*
X108298122Y-143436848D01*
X108322458Y-143444755D01*
X108395465Y-143468477D01*
X108597648Y-143500500D01*
X140392514Y-143500500D01*
X140392538Y-143500501D01*
X140397649Y-143500501D01*
X140602351Y-143500501D01*
X140602352Y-143500501D01*
X140804535Y-143468477D01*
X140804538Y-143468476D01*
X140804539Y-143468476D01*
X140999215Y-143405222D01*
X140999215Y-143405221D01*
X140999218Y-143405221D01*
X141181611Y-143312287D01*
X141347219Y-143191966D01*
X141491966Y-143047219D01*
X141612287Y-142881611D01*
X141705221Y-142699218D01*
X141768477Y-142504535D01*
X141800501Y-142302352D01*
X141800501Y-142097649D01*
X141768477Y-141895466D01*
X141768476Y-141895462D01*
X141768476Y-141895461D01*
X141705222Y-141700784D01*
X141705216Y-141700771D01*
X141612289Y-141518393D01*
X141606548Y-141510491D01*
X141606546Y-141510489D01*
X141491971Y-141352787D01*
X141491968Y-141352784D01*
X141491966Y-141352781D01*
X141347219Y-141208034D01*
X141347218Y-141208033D01*
X141344107Y-141204922D01*
X141344092Y-141204908D01*
X138746144Y-138606960D01*
X136147219Y-136008034D01*
X135981611Y-135887713D01*
X135828536Y-135809718D01*
X135799219Y-135794780D01*
X135685102Y-135757701D01*
X135685101Y-135757700D01*
X135604532Y-135731522D01*
X135449220Y-135706923D01*
X135402352Y-135699500D01*
X135402351Y-135699500D01*
X134982941Y-135699500D01*
X134915902Y-135679815D01*
X134895260Y-135663182D01*
X134851968Y-135619890D01*
X134802262Y-135570184D01*
X134731606Y-135525788D01*
X134649523Y-135474211D01*
X134479254Y-135414631D01*
X134479249Y-135414630D01*
X134344960Y-135399500D01*
X134344954Y-135399500D01*
X132830046Y-135399500D01*
X132763007Y-135379815D01*
X132742365Y-135363181D01*
X131337366Y-133958181D01*
X131303881Y-133896858D01*
X131308865Y-133827166D01*
X131350737Y-133771233D01*
X131416201Y-133746816D01*
X131425047Y-133746500D01*
X131608187Y-133746500D01*
X131646505Y-133752569D01*
X131695465Y-133768477D01*
X131796557Y-133784489D01*
X131897649Y-133800501D01*
X131897650Y-133800501D01*
X132107463Y-133800501D01*
X132107487Y-133800500D01*
X141075500Y-133800500D01*
X141142539Y-133820185D01*
X141188294Y-133872989D01*
X141199500Y-133924500D01*
X141199500Y-137110351D01*
X141231522Y-137312535D01*
X141249647Y-137368315D01*
X141263151Y-137409876D01*
X141294780Y-137507219D01*
X141294781Y-137507220D01*
X141330225Y-137576785D01*
X141330227Y-137576787D01*
X141387713Y-137689611D01*
X141508034Y-137855219D01*
X141508035Y-137855220D01*
X141508036Y-137855221D01*
X143750908Y-140098092D01*
X143750922Y-140098107D01*
X143754033Y-140101218D01*
X143754034Y-140101219D01*
X143898781Y-140245966D01*
X144027402Y-140339414D01*
X144064390Y-140366287D01*
X144157261Y-140413607D01*
X144246781Y-140459221D01*
X144246787Y-140459223D01*
X144340115Y-140489546D01*
X144433449Y-140519872D01*
X144441466Y-140522477D01*
X144643648Y-140554500D01*
X144643649Y-140554500D01*
X149356351Y-140554500D01*
X149356352Y-140554500D01*
X149558534Y-140522477D01*
X149753219Y-140459220D01*
X149935610Y-140366287D01*
X150047302Y-140285139D01*
X150101213Y-140245971D01*
X150101215Y-140245968D01*
X150101219Y-140245966D01*
X150245966Y-140101219D01*
X150245968Y-140101215D01*
X150245971Y-140101213D01*
X150338823Y-139973411D01*
X150366287Y-139935610D01*
X150459220Y-139753219D01*
X150522477Y-139558534D01*
X150554500Y-139356352D01*
X150554500Y-134071648D01*
X150537055Y-133961505D01*
X150522477Y-133869465D01*
X150482790Y-133747322D01*
X150459220Y-133674781D01*
X150459218Y-133674778D01*
X150459218Y-133674776D01*
X150400148Y-133558846D01*
X150366287Y-133492390D01*
X150355867Y-133478048D01*
X150245971Y-133326786D01*
X149308421Y-132389236D01*
X149274936Y-132327913D01*
X149274485Y-132277362D01*
X149285713Y-132220920D01*
X149305436Y-131920000D01*
X149285713Y-131619080D01*
X149279254Y-131586611D01*
X149247143Y-131425177D01*
X149226880Y-131323309D01*
X149129945Y-131037748D01*
X149120775Y-131019154D01*
X149026770Y-130828529D01*
X149014774Y-130759697D01*
X149041895Y-130695306D01*
X149081688Y-130663200D01*
X149104588Y-130651532D01*
X149104591Y-130651529D01*
X149104605Y-130651523D01*
X149181611Y-130612287D01*
X149347219Y-130491966D01*
X150245966Y-129593219D01*
X150366287Y-129427611D01*
X150451753Y-129259873D01*
X150459220Y-129245219D01*
X150506242Y-129100500D01*
X150522477Y-129050535D01*
X150554500Y-128848352D01*
X150554500Y-128643648D01*
X150554500Y-123911648D01*
X150535538Y-123791931D01*
X150522477Y-123709465D01*
X150479367Y-123576788D01*
X150459220Y-123514781D01*
X150459218Y-123514778D01*
X150459218Y-123514776D01*
X150395737Y-123390189D01*
X150366287Y-123332390D01*
X150342807Y-123300072D01*
X150245971Y-123166786D01*
X149308421Y-122229236D01*
X149274936Y-122167913D01*
X149274485Y-122117362D01*
X149285713Y-122060920D01*
X149305436Y-121760000D01*
X149285713Y-121459080D01*
X149226880Y-121163309D01*
X149129945Y-120877748D01*
X149123362Y-120864400D01*
X148996568Y-120607286D01*
X148996564Y-120607279D01*
X148829026Y-120356540D01*
X148630189Y-120129810D01*
X148403459Y-119930973D01*
X148152720Y-119763435D01*
X148152713Y-119763431D01*
X147882268Y-119630062D01*
X147882247Y-119630053D01*
X147596698Y-119533122D01*
X147596692Y-119533120D01*
X147596691Y-119533120D01*
X147596689Y-119533119D01*
X147596683Y-119533118D01*
X147300930Y-119474288D01*
X147300921Y-119474287D01*
X147300920Y-119474287D01*
X147000000Y-119454564D01*
X146699080Y-119474287D01*
X146699079Y-119474287D01*
X146699069Y-119474288D01*
X146403316Y-119533118D01*
X146403301Y-119533122D01*
X146117752Y-119630053D01*
X146117731Y-119630062D01*
X145847286Y-119763431D01*
X145847279Y-119763435D01*
X145596540Y-119930973D01*
X145369810Y-120129810D01*
X145170973Y-120356540D01*
X145003435Y-120607279D01*
X145003431Y-120607286D01*
X144870062Y-120877731D01*
X144870053Y-120877752D01*
X144773122Y-121163301D01*
X144773118Y-121163316D01*
X144714288Y-121459069D01*
X144714287Y-121459081D01*
X144694564Y-121760000D01*
X144714287Y-122060918D01*
X144714288Y-122060930D01*
X144773118Y-122356683D01*
X144773122Y-122356698D01*
X144870053Y-122642247D01*
X144870062Y-122642268D01*
X145003431Y-122912713D01*
X145003435Y-122912720D01*
X145170973Y-123163459D01*
X145369810Y-123390189D01*
X145596540Y-123589026D01*
X145847279Y-123756564D01*
X145847286Y-123756568D01*
X146117731Y-123889937D01*
X146117736Y-123889939D01*
X146117748Y-123889945D01*
X146403309Y-123986880D01*
X146577626Y-124021554D01*
X146699069Y-124045711D01*
X146699070Y-124045711D01*
X146699080Y-124045713D01*
X147000000Y-124065436D01*
X147300920Y-124045713D01*
X147357363Y-124034485D01*
X147426954Y-124040712D01*
X147469236Y-124068421D01*
X147852312Y-124451497D01*
X147885797Y-124512820D01*
X147880813Y-124582512D01*
X147838941Y-124638445D01*
X147773477Y-124662862D01*
X147724773Y-124656597D01*
X147596703Y-124613123D01*
X147596683Y-124613118D01*
X147300930Y-124554288D01*
X147300921Y-124554287D01*
X147300920Y-124554287D01*
X147000000Y-124534564D01*
X146699080Y-124554287D01*
X146699079Y-124554287D01*
X146699069Y-124554288D01*
X146403316Y-124613118D01*
X146403301Y-124613122D01*
X146117752Y-124710053D01*
X146117731Y-124710062D01*
X145847286Y-124843431D01*
X145847279Y-124843435D01*
X145596540Y-125010973D01*
X145369810Y-125209810D01*
X145170977Y-125436535D01*
X145156922Y-125457570D01*
X145139001Y-125484391D01*
X145085391Y-125529195D01*
X145035900Y-125539500D01*
X142557648Y-125539500D01*
X142506419Y-125547614D01*
X142355464Y-125571523D01*
X142160784Y-125634777D01*
X142160781Y-125634778D01*
X141978386Y-125727715D01*
X141812786Y-125848028D01*
X141812782Y-125848032D01*
X140997634Y-126663181D01*
X140936311Y-126696666D01*
X140909953Y-126699500D01*
X131254446Y-126699500D01*
X131187407Y-126679815D01*
X131141652Y-126627011D01*
X131130828Y-126565771D01*
X131145449Y-126380000D01*
X131125683Y-126128852D01*
X131066873Y-125883889D01*
X131046993Y-125835894D01*
X130970466Y-125651140D01*
X130838839Y-125436346D01*
X130838838Y-125436344D01*
X130838837Y-125436343D01*
X130838836Y-125436341D01*
X130694581Y-125267440D01*
X130672060Y-125241071D01*
X130673332Y-125239984D01*
X130643334Y-125185047D01*
X130640500Y-125158689D01*
X130640500Y-114953389D01*
X130613402Y-114782302D01*
X130613402Y-114782299D01*
X130559873Y-114617555D01*
X130481232Y-114463212D01*
X130379414Y-114323072D01*
X130256928Y-114200586D01*
X103573523Y-87517181D01*
X103540038Y-87455858D01*
X103545022Y-87386166D01*
X103586894Y-87330233D01*
X103652358Y-87305816D01*
X103661204Y-87305500D01*
X107875991Y-87305500D01*
X107876000Y-87305500D01*
X108047228Y-87287090D01*
X108098739Y-87275884D01*
X108138635Y-87266134D01*
X108306316Y-87199665D01*
X108455002Y-87097550D01*
X108507806Y-87051795D01*
X108578180Y-86982842D01*
X108683308Y-86836270D01*
X108753185Y-86669981D01*
X108772870Y-86602942D01*
X108776238Y-86590023D01*
X108785303Y-86555247D01*
X108790951Y-86505124D01*
X108805500Y-86376000D01*
X108805500Y-68124000D01*
X108787090Y-67952772D01*
X108775884Y-67901261D01*
X108766134Y-67861365D01*
X108699665Y-67693684D01*
X108597550Y-67544998D01*
X108551795Y-67492194D01*
X108482842Y-67421820D01*
X108336270Y-67316692D01*
X108169981Y-67246815D01*
X108169982Y-67246815D01*
X108169979Y-67246814D01*
X108102924Y-67227124D01*
X108055247Y-67214696D01*
X107876004Y-67194500D01*
X107876000Y-67194500D01*
X90124000Y-67194500D01*
X90123991Y-67194500D01*
X89952773Y-67212909D01*
X89901254Y-67224117D01*
X89861370Y-67233864D01*
X89861365Y-67233866D01*
X89693684Y-67300335D01*
X89693683Y-67300335D01*
X89693682Y-67300336D01*
X89544998Y-67402449D01*
X89544994Y-67402453D01*
X89492196Y-67448202D01*
X89492192Y-67448206D01*
X89421823Y-67517154D01*
X89316692Y-67663730D01*
X89246814Y-67830020D01*
X89227124Y-67897075D01*
X89214696Y-67944752D01*
X89194500Y-68123995D01*
X89194500Y-86376008D01*
X89212909Y-86547226D01*
X89224117Y-86598745D01*
X89233864Y-86638629D01*
X89233865Y-86638632D01*
X89233866Y-86638635D01*
X89300335Y-86806316D01*
X89302865Y-86810000D01*
X89382942Y-86926598D01*
X89402450Y-86955002D01*
X89448205Y-87007806D01*
X89517158Y-87078180D01*
X89663730Y-87183308D01*
X89830019Y-87253185D01*
X89895252Y-87272339D01*
X89897075Y-87272875D01*
X89944752Y-87285303D01*
X89944757Y-87285303D01*
X89944759Y-87285304D01*
X90123995Y-87305499D01*
X90123996Y-87305500D01*
X90124000Y-87305500D01*
X95931296Y-87305500D01*
X95998335Y-87325185D01*
X96044090Y-87377989D01*
X96054034Y-87447147D01*
X96025009Y-87510703D01*
X96018977Y-87517181D01*
X95167541Y-88368615D01*
X95106218Y-88402100D01*
X95089590Y-88404552D01*
X95012181Y-88410644D01*
X94874345Y-88421493D01*
X94874341Y-88421494D01*
X94634735Y-88479017D01*
X94407079Y-88573315D01*
X94196981Y-88702063D01*
X94196979Y-88702064D01*
X94106608Y-88779249D01*
X94009601Y-88862101D01*
X94000468Y-88872795D01*
X93944290Y-88938571D01*
X93885783Y-88976764D01*
X93815916Y-88977263D01*
X93756869Y-88939909D01*
X93755710Y-88938571D01*
X93690399Y-88862101D01*
X93503727Y-88702668D01*
X93503020Y-88702064D01*
X93503018Y-88702063D01*
X93292920Y-88573315D01*
X93065264Y-88479017D01*
X92825658Y-88421493D01*
X92580000Y-88402159D01*
X92334341Y-88421493D01*
X92094735Y-88479017D01*
X91867079Y-88573315D01*
X91656981Y-88702063D01*
X91656979Y-88702064D01*
X91566608Y-88779249D01*
X91469601Y-88862101D01*
X91460468Y-88872795D01*
X91404290Y-88938571D01*
X91345783Y-88976764D01*
X91275916Y-88977263D01*
X91216869Y-88939909D01*
X91215710Y-88938571D01*
X91150399Y-88862101D01*
X90963727Y-88702668D01*
X90963020Y-88702064D01*
X90963018Y-88702063D01*
X90752920Y-88573315D01*
X90525264Y-88479017D01*
X90285658Y-88421493D01*
X90040000Y-88402159D01*
X89794341Y-88421493D01*
X89554735Y-88479017D01*
X89327079Y-88573315D01*
X89116981Y-88702063D01*
X89116979Y-88702064D01*
X89026608Y-88779249D01*
X88929601Y-88862101D01*
X88920468Y-88872795D01*
X88864290Y-88938571D01*
X88805783Y-88976764D01*
X88735916Y-88977263D01*
X88676869Y-88939909D01*
X88675710Y-88938571D01*
X88610399Y-88862101D01*
X88423727Y-88702668D01*
X88423020Y-88702064D01*
X88423018Y-88702063D01*
X88212920Y-88573315D01*
X87985264Y-88479017D01*
X87745658Y-88421493D01*
X87500000Y-88402159D01*
X87254341Y-88421493D01*
X87014735Y-88479017D01*
X86787079Y-88573315D01*
X86576981Y-88702063D01*
X86576979Y-88702064D01*
X86389601Y-88862101D01*
X86229564Y-89049479D01*
X86229563Y-89049482D01*
X86129170Y-89213308D01*
X86077358Y-89260183D01*
X86014312Y-89271738D01*
X85451127Y-89834922D01*
X85435245Y-89775647D01*
X85368102Y-89659353D01*
X85273147Y-89564398D01*
X85156853Y-89497255D01*
X85097575Y-89481372D01*
X85660342Y-88918605D01*
X85660341Y-88918603D01*
X85594919Y-88872795D01*
X85394309Y-88779249D01*
X85394300Y-88779245D01*
X85180509Y-88721961D01*
X85180499Y-88721959D01*
X84960001Y-88702668D01*
X84959999Y-88702668D01*
X84739500Y-88721959D01*
X84739490Y-88721961D01*
X84525699Y-88779245D01*
X84525690Y-88779249D01*
X84325084Y-88872793D01*
X84259657Y-88918604D01*
X84822424Y-89481371D01*
X84763147Y-89497255D01*
X84646853Y-89564398D01*
X84551898Y-89659353D01*
X84484755Y-89775647D01*
X84468871Y-89834924D01*
X83905648Y-89271701D01*
X83838863Y-89258279D01*
X83790829Y-89213308D01*
X83690436Y-89049481D01*
X83690435Y-89049479D01*
X83654280Y-89007148D01*
X83530399Y-88862101D01*
X83343727Y-88702668D01*
X83343020Y-88702064D01*
X83343018Y-88702063D01*
X83132920Y-88573315D01*
X82905264Y-88479017D01*
X82665658Y-88421493D01*
X82420000Y-88402159D01*
X82174341Y-88421493D01*
X81934735Y-88479017D01*
X81707079Y-88573315D01*
X81496981Y-88702063D01*
X81496979Y-88702064D01*
X81406608Y-88779249D01*
X81309601Y-88862101D01*
X81300468Y-88872795D01*
X81244290Y-88938571D01*
X81185783Y-88976764D01*
X81115916Y-88977263D01*
X81056869Y-88939909D01*
X81055710Y-88938571D01*
X80990399Y-88862101D01*
X80803727Y-88702668D01*
X80803020Y-88702064D01*
X80803018Y-88702063D01*
X80592920Y-88573315D01*
X80365264Y-88479017D01*
X80125658Y-88421493D01*
X79880000Y-88402159D01*
X79634341Y-88421493D01*
X79394735Y-88479017D01*
X79167079Y-88573315D01*
X78956981Y-88702063D01*
X78956979Y-88702064D01*
X78866608Y-88779249D01*
X78769601Y-88862101D01*
X78760468Y-88872795D01*
X78704290Y-88938571D01*
X78645783Y-88976764D01*
X78575916Y-88977263D01*
X78516869Y-88939909D01*
X78515710Y-88938571D01*
X78450399Y-88862101D01*
X78263727Y-88702668D01*
X78263020Y-88702064D01*
X78263018Y-88702063D01*
X78052920Y-88573315D01*
X77825264Y-88479017D01*
X77585658Y-88421493D01*
X77340000Y-88402159D01*
X77094341Y-88421493D01*
X76854735Y-88479017D01*
X76627079Y-88573315D01*
X76416981Y-88702063D01*
X76416979Y-88702064D01*
X76326608Y-88779249D01*
X76229601Y-88862101D01*
X76220468Y-88872795D01*
X76164290Y-88938571D01*
X76105783Y-88976764D01*
X76035916Y-88977263D01*
X75976869Y-88939909D01*
X75975710Y-88938571D01*
X75910399Y-88862101D01*
X75723727Y-88702668D01*
X75723020Y-88702064D01*
X75723018Y-88702063D01*
X75512920Y-88573315D01*
X75285264Y-88479017D01*
X75045658Y-88421493D01*
X74800000Y-88402159D01*
X74554341Y-88421493D01*
X74314735Y-88479017D01*
X74087079Y-88573315D01*
X73876981Y-88702063D01*
X73876979Y-88702064D01*
X73786608Y-88779249D01*
X73689601Y-88862101D01*
X73680468Y-88872795D01*
X73624290Y-88938571D01*
X73565783Y-88976764D01*
X73495916Y-88977263D01*
X73436869Y-88939909D01*
X73435710Y-88938571D01*
X73370399Y-88862101D01*
X73183727Y-88702668D01*
X73183020Y-88702064D01*
X73183018Y-88702063D01*
X72972920Y-88573315D01*
X72745264Y-88479017D01*
X72505658Y-88421493D01*
X72260000Y-88402159D01*
X72014341Y-88421493D01*
X71774735Y-88479017D01*
X71547079Y-88573315D01*
X71336981Y-88702063D01*
X71336979Y-88702064D01*
X71246608Y-88779249D01*
X71149601Y-88862101D01*
X71140468Y-88872795D01*
X71084290Y-88938571D01*
X71025783Y-88976764D01*
X70955916Y-88977263D01*
X70896869Y-88939909D01*
X70895710Y-88938571D01*
X70830399Y-88862101D01*
X70643727Y-88702668D01*
X70643020Y-88702064D01*
X70643018Y-88702063D01*
X70432920Y-88573315D01*
X70205264Y-88479017D01*
X69965658Y-88421493D01*
X69720000Y-88402159D01*
X69474341Y-88421493D01*
X69234735Y-88479017D01*
X69007079Y-88573315D01*
X68796981Y-88702063D01*
X68796979Y-88702064D01*
X68706608Y-88779249D01*
X68609601Y-88862101D01*
X68600468Y-88872795D01*
X68544290Y-88938571D01*
X68485783Y-88976764D01*
X68415916Y-88977263D01*
X68356869Y-88939909D01*
X68355710Y-88938571D01*
X68290399Y-88862101D01*
X68103727Y-88702668D01*
X68103020Y-88702064D01*
X68103018Y-88702063D01*
X67892920Y-88573315D01*
X67665264Y-88479017D01*
X67513870Y-88442671D01*
X67425655Y-88421493D01*
X67259782Y-88408438D01*
X67210408Y-88404552D01*
X67145120Y-88379667D01*
X67132457Y-88368615D01*
X65924430Y-87160588D01*
X65924428Y-87160586D01*
X65784288Y-87058768D01*
X65629945Y-86980127D01*
X65465201Y-86926598D01*
X65465199Y-86926597D01*
X65465198Y-86926597D01*
X65333771Y-86905781D01*
X65294111Y-86899500D01*
X65294110Y-86899500D01*
X53956204Y-86899500D01*
X53889165Y-86879815D01*
X53843410Y-86827011D01*
X53833466Y-86757853D01*
X53862491Y-86694297D01*
X53868523Y-86687819D01*
X58973403Y-81582939D01*
X74407256Y-66149084D01*
X74468577Y-66115601D01*
X74523880Y-66116192D01*
X74554345Y-66123507D01*
X74800000Y-66142841D01*
X75045655Y-66123507D01*
X75285262Y-66065983D01*
X75512920Y-65971684D01*
X75723023Y-65842933D01*
X75910399Y-65682899D01*
X75975711Y-65606427D01*
X76034216Y-65568236D01*
X76104084Y-65567736D01*
X76163130Y-65605090D01*
X76164216Y-65606342D01*
X76220469Y-65672207D01*
X76229601Y-65682899D01*
X76416979Y-65842935D01*
X76416981Y-65842936D01*
X76627079Y-65971684D01*
X76854735Y-66065982D01*
X76854736Y-66065982D01*
X76854738Y-66065983D01*
X77094345Y-66123507D01*
X77340000Y-66142841D01*
X77585655Y-66123507D01*
X77825262Y-66065983D01*
X78052920Y-65971684D01*
X78263023Y-65842933D01*
X78450399Y-65682899D01*
X78515711Y-65606427D01*
X78574216Y-65568236D01*
X78644084Y-65567736D01*
X78703130Y-65605090D01*
X78704216Y-65606342D01*
X78760469Y-65672207D01*
X78769601Y-65682899D01*
X78956979Y-65842935D01*
X78956981Y-65842936D01*
X79167079Y-65971684D01*
X79394735Y-66065982D01*
X79394736Y-66065982D01*
X79394738Y-66065983D01*
X79634345Y-66123507D01*
X79880000Y-66142841D01*
X80125655Y-66123507D01*
X80365262Y-66065983D01*
X80592920Y-65971684D01*
X80803023Y-65842933D01*
X80990399Y-65682899D01*
X81055711Y-65606427D01*
X81114216Y-65568236D01*
X81184084Y-65567736D01*
X81243130Y-65605090D01*
X81244216Y-65606342D01*
X81300469Y-65672207D01*
X81309601Y-65682899D01*
X81496979Y-65842935D01*
X81496981Y-65842936D01*
X81707079Y-65971684D01*
X81934735Y-66065982D01*
X81934736Y-66065982D01*
X81934738Y-66065983D01*
X82174345Y-66123507D01*
X82420000Y-66142841D01*
X82665655Y-66123507D01*
X82905262Y-66065983D01*
X83132920Y-65971684D01*
X83343023Y-65842933D01*
X83530399Y-65682899D01*
X83595711Y-65606427D01*
X83654216Y-65568236D01*
X83724084Y-65567736D01*
X83783130Y-65605090D01*
X83784216Y-65606342D01*
X83840469Y-65672207D01*
X83849601Y-65682899D01*
X84036979Y-65842935D01*
X84036981Y-65842936D01*
X84247079Y-65971684D01*
X84474735Y-66065982D01*
X84474736Y-66065982D01*
X84474738Y-66065983D01*
X84714345Y-66123507D01*
X84960000Y-66142841D01*
X85205655Y-66123507D01*
X85445262Y-66065983D01*
X85672920Y-65971684D01*
X85883023Y-65842933D01*
X86070399Y-65682899D01*
X86135711Y-65606427D01*
X86194216Y-65568236D01*
X86264084Y-65567736D01*
X86323130Y-65605090D01*
X86324216Y-65606342D01*
X86380469Y-65672207D01*
X86389601Y-65682899D01*
X86576979Y-65842935D01*
X86576981Y-65842936D01*
X86787079Y-65971684D01*
X87014735Y-66065982D01*
X87014736Y-66065982D01*
X87014738Y-66065983D01*
X87254345Y-66123507D01*
X87500000Y-66142841D01*
X87745655Y-66123507D01*
X87985262Y-66065983D01*
X88212920Y-65971684D01*
X88423023Y-65842933D01*
X88610399Y-65682899D01*
X88675711Y-65606427D01*
X88734216Y-65568236D01*
X88804084Y-65567736D01*
X88863130Y-65605090D01*
X88864216Y-65606342D01*
X88920469Y-65672207D01*
X88929601Y-65682899D01*
X89116979Y-65842935D01*
X89116981Y-65842936D01*
X89327079Y-65971684D01*
X89554735Y-66065982D01*
X89554736Y-66065982D01*
X89554738Y-66065983D01*
X89794345Y-66123507D01*
X90040000Y-66142841D01*
X90285655Y-66123507D01*
X90525262Y-66065983D01*
X90752920Y-65971684D01*
X90963023Y-65842933D01*
X91150399Y-65682899D01*
X91215711Y-65606427D01*
X91274216Y-65568236D01*
X91344084Y-65567736D01*
X91403130Y-65605090D01*
X91404216Y-65606342D01*
X91460469Y-65672207D01*
X91469601Y-65682899D01*
X91656979Y-65842935D01*
X91656981Y-65842936D01*
X91867079Y-65971684D01*
X92094735Y-66065982D01*
X92094736Y-66065982D01*
X92094738Y-66065983D01*
X92334345Y-66123507D01*
X92580000Y-66142841D01*
X92825655Y-66123507D01*
X93065262Y-66065983D01*
X93292920Y-65971684D01*
X93503023Y-65842933D01*
X93690399Y-65682899D01*
X93755711Y-65606427D01*
X93814216Y-65568236D01*
X93884084Y-65567736D01*
X93943130Y-65605090D01*
X93944216Y-65606342D01*
X94000469Y-65672207D01*
X94009601Y-65682899D01*
X94196979Y-65842935D01*
X94196981Y-65842936D01*
X94407079Y-65971684D01*
X94634735Y-66065982D01*
X94634736Y-66065982D01*
X94634738Y-66065983D01*
X94874345Y-66123507D01*
X95120000Y-66142841D01*
X95365655Y-66123507D01*
X95605262Y-66065983D01*
X95832920Y-65971684D01*
X96043023Y-65842933D01*
X96230399Y-65682899D01*
X96295711Y-65606427D01*
X96354216Y-65568236D01*
X96424084Y-65567736D01*
X96483130Y-65605090D01*
X96484216Y-65606342D01*
X96540469Y-65672207D01*
X96549601Y-65682899D01*
X96736979Y-65842935D01*
X96736981Y-65842936D01*
X96947079Y-65971684D01*
X97174735Y-66065982D01*
X97174736Y-66065982D01*
X97174738Y-66065983D01*
X97414345Y-66123507D01*
X97660000Y-66142841D01*
X97905655Y-66123507D01*
X98145262Y-66065983D01*
X98372920Y-65971684D01*
X98583023Y-65842933D01*
X98619741Y-65811572D01*
X98683499Y-65783003D01*
X98752585Y-65793438D01*
X98799921Y-65835049D01*
X98800841Y-65834316D01*
X98804955Y-65839475D01*
X98805061Y-65839568D01*
X98805181Y-65839758D01*
X98805184Y-65839762D01*
X98932738Y-65967316D01*
X99085478Y-66063289D01*
X99190341Y-66099982D01*
X99255745Y-66122868D01*
X99255750Y-66122869D01*
X99346246Y-66133065D01*
X99390040Y-66137999D01*
X99390043Y-66138000D01*
X99390046Y-66138000D01*
X101009957Y-66138000D01*
X101009958Y-66137999D01*
X101077104Y-66130434D01*
X101144249Y-66122869D01*
X101144252Y-66122868D01*
X101144255Y-66122868D01*
X101314522Y-66063289D01*
X101467262Y-65967316D01*
X101594816Y-65839762D01*
X101690789Y-65687022D01*
X101750368Y-65516755D01*
X101750507Y-65515528D01*
X101759568Y-65435104D01*
X101765500Y-65382454D01*
X101765500Y-63762546D01*
X101752761Y-63649481D01*
X101750369Y-63628250D01*
X101750368Y-63628245D01*
X101695973Y-63472793D01*
X101690789Y-63457978D01*
X101679317Y-63439721D01*
X101635202Y-63369512D01*
X101594816Y-63305238D01*
X101467262Y-63177684D01*
X101410368Y-63141935D01*
X101314523Y-63081711D01*
X101144254Y-63022131D01*
X101144249Y-63022130D01*
X101009960Y-63007000D01*
X101009954Y-63007000D01*
X99390046Y-63007000D01*
X99390039Y-63007000D01*
X99255750Y-63022130D01*
X99255745Y-63022131D01*
X99085476Y-63081711D01*
X98932737Y-63177684D01*
X98805182Y-63305239D01*
X98800837Y-63310688D01*
X98799850Y-63309901D01*
X98752917Y-63351405D01*
X98683862Y-63362044D01*
X98620017Y-63333662D01*
X98619739Y-63333425D01*
X98583025Y-63302068D01*
X98583020Y-63302065D01*
X98372920Y-63173315D01*
X98145264Y-63079017D01*
X97905658Y-63021493D01*
X97660000Y-63002159D01*
X97414341Y-63021493D01*
X97174735Y-63079017D01*
X96947079Y-63173315D01*
X96736981Y-63302063D01*
X96736979Y-63302064D01*
X96549601Y-63462101D01*
X96484290Y-63538571D01*
X96425783Y-63576764D01*
X96355916Y-63577263D01*
X96296869Y-63539909D01*
X96295710Y-63538571D01*
X96279889Y-63520047D01*
X96230399Y-63462101D01*
X96106516Y-63356295D01*
X96043020Y-63302064D01*
X96043018Y-63302063D01*
X95832920Y-63173315D01*
X95605264Y-63079017D01*
X95365658Y-63021493D01*
X95120000Y-63002159D01*
X94874341Y-63021493D01*
X94634735Y-63079017D01*
X94407079Y-63173315D01*
X94196981Y-63302063D01*
X94196979Y-63302064D01*
X94009601Y-63462101D01*
X93944290Y-63538571D01*
X93885783Y-63576764D01*
X93815916Y-63577263D01*
X93756869Y-63539909D01*
X93755710Y-63538571D01*
X93739889Y-63520047D01*
X93690399Y-63462101D01*
X93566516Y-63356295D01*
X93503020Y-63302064D01*
X93503018Y-63302063D01*
X93292920Y-63173315D01*
X93075537Y-63083273D01*
X93021134Y-63039432D01*
X92999069Y-62973138D01*
X93016348Y-62905439D01*
X93035305Y-62881035D01*
X100727559Y-55188781D01*
X100788880Y-55155298D01*
X100824964Y-55152846D01*
X100860000Y-55155604D01*
X101118994Y-55135221D01*
X101371610Y-55074573D01*
X101611628Y-54975154D01*
X101833140Y-54839412D01*
X102030689Y-54670689D01*
X102035710Y-54664809D01*
X102094213Y-54626617D01*
X102164081Y-54626116D01*
X102223128Y-54663468D01*
X102224197Y-54664702D01*
X102229311Y-54670689D01*
X102426860Y-54839412D01*
X102648372Y-54975154D01*
X102648374Y-54975154D01*
X102648376Y-54975156D01*
X102659629Y-54979817D01*
X102888390Y-55074573D01*
X103141006Y-55135221D01*
X103400000Y-55155604D01*
X103658994Y-55135221D01*
X103911610Y-55074573D01*
X104151628Y-54975154D01*
X104373140Y-54839412D01*
X104570689Y-54670689D01*
X104739412Y-54473140D01*
X104757740Y-54443230D01*
X104809550Y-54396355D01*
X104878479Y-54384931D01*
X104942643Y-54412587D01*
X104951149Y-54420337D01*
X105068921Y-54538108D01*
X105262421Y-54673600D01*
X105476507Y-54773429D01*
X105476516Y-54773433D01*
X105690000Y-54830634D01*
X105690000Y-53933012D01*
X105747007Y-53965925D01*
X105874174Y-54000000D01*
X106005826Y-54000000D01*
X106132993Y-53965925D01*
X106190000Y-53933012D01*
X106190000Y-54830633D01*
X106403483Y-54773433D01*
X106403492Y-54773429D01*
X106617578Y-54673600D01*
X106811082Y-54538105D01*
X106978105Y-54371082D01*
X107113600Y-54177578D01*
X107213429Y-53963492D01*
X107213432Y-53963486D01*
X107270636Y-53750000D01*
X106373012Y-53750000D01*
X106405925Y-53692993D01*
X106440000Y-53565826D01*
X106440000Y-53434174D01*
X106405925Y-53307007D01*
X106373012Y-53250000D01*
X107270636Y-53250000D01*
X107270635Y-53249999D01*
X107213432Y-53036513D01*
X107213429Y-53036507D01*
X107113600Y-52822422D01*
X107113599Y-52822420D01*
X106978113Y-52628926D01*
X106978108Y-52628920D01*
X106811082Y-52461894D01*
X106617578Y-52326399D01*
X106403492Y-52226570D01*
X106403486Y-52226567D01*
X106190000Y-52169364D01*
X106190000Y-53066988D01*
X106132993Y-53034075D01*
X106005826Y-53000000D01*
X105874174Y-53000000D01*
X105747007Y-53034075D01*
X105690000Y-53066988D01*
X105690000Y-52169364D01*
X105689999Y-52169364D01*
X105476513Y-52226567D01*
X105476507Y-52226570D01*
X105262422Y-52326399D01*
X105262420Y-52326400D01*
X105068926Y-52461886D01*
X104951149Y-52579663D01*
X104889826Y-52613147D01*
X104820134Y-52608163D01*
X104764201Y-52566291D01*
X104757741Y-52556771D01*
X104739412Y-52526860D01*
X104739202Y-52526614D01*
X104730207Y-52516081D01*
X104701639Y-52452319D01*
X104700500Y-52435553D01*
X104700500Y-48424500D01*
X104720185Y-48357461D01*
X104772989Y-48311706D01*
X104824500Y-48300500D01*
X116575500Y-48300500D01*
X116642539Y-48320185D01*
X116688294Y-48372989D01*
X116699500Y-48424500D01*
X116699500Y-92602355D01*
X116708723Y-92660585D01*
X116708723Y-92660586D01*
X116731522Y-92804530D01*
X116731522Y-92804531D01*
X116731523Y-92804534D01*
X116794780Y-92999219D01*
X116832578Y-93073402D01*
X116887713Y-93181611D01*
X117008034Y-93347219D01*
X117008035Y-93347220D01*
X117008036Y-93347221D01*
X128799423Y-105138607D01*
X128824123Y-105173880D01*
X128825965Y-105177831D01*
X128927032Y-105322169D01*
X128961505Y-105371401D01*
X129128599Y-105538495D01*
X129225384Y-105606265D01*
X129322165Y-105674032D01*
X129322167Y-105674033D01*
X129322170Y-105674035D01*
X129536337Y-105773903D01*
X129764592Y-105835063D01*
X129952918Y-105851539D01*
X129999999Y-105855659D01*
X130000000Y-105855659D01*
X130000001Y-105855659D01*
X130039234Y-105852226D01*
X130235408Y-105835063D01*
X130463663Y-105773903D01*
X130677830Y-105674035D01*
X130871401Y-105538495D01*
X131038495Y-105371401D01*
X131174035Y-105177830D01*
X131273903Y-104963663D01*
X131335063Y-104735408D01*
X131355659Y-104500000D01*
X131335063Y-104264592D01*
X131273903Y-104036337D01*
X131174035Y-103822171D01*
X131161616Y-103804434D01*
X131038494Y-103628597D01*
X130871402Y-103461506D01*
X130871395Y-103461501D01*
X130677831Y-103325965D01*
X130673880Y-103324123D01*
X130638607Y-103299423D01*
X121273293Y-93934108D01*
X133799500Y-93934108D01*
X133799500Y-117065891D01*
X133833608Y-117193187D01*
X133866554Y-117250250D01*
X133899500Y-117307314D01*
X133992686Y-117400500D01*
X134106814Y-117466392D01*
X134234108Y-117500500D01*
X134234110Y-117500500D01*
X146565890Y-117500500D01*
X146565892Y-117500500D01*
X146693186Y-117466392D01*
X146807314Y-117400500D01*
X146900500Y-117307314D01*
X146966392Y-117193186D01*
X147000500Y-117065892D01*
X147000500Y-93934108D01*
X146966392Y-93806814D01*
X146900500Y-93692686D01*
X146807314Y-93599500D01*
X146750250Y-93566554D01*
X146693187Y-93533608D01*
X146629539Y-93516554D01*
X146565892Y-93499500D01*
X134365892Y-93499500D01*
X134234108Y-93499500D01*
X134106812Y-93533608D01*
X133992686Y-93599500D01*
X133992683Y-93599502D01*
X133899502Y-93692683D01*
X133899500Y-93692686D01*
X133833608Y-93806812D01*
X133799500Y-93934108D01*
X121273293Y-93934108D01*
X119336819Y-91997634D01*
X119303334Y-91936311D01*
X119300500Y-91909953D01*
X119300500Y-88458000D01*
X119320185Y-88390961D01*
X119372989Y-88345206D01*
X119424500Y-88334000D01*
X122663453Y-88334000D01*
X122730492Y-88353685D01*
X122751134Y-88370319D01*
X124011755Y-89630939D01*
X124044648Y-89689671D01*
X124079379Y-89834332D01*
X124079380Y-89834336D01*
X124079381Y-89834337D01*
X124173494Y-90061550D01*
X124173496Y-90061553D01*
X124301998Y-90271249D01*
X124301999Y-90271252D01*
X124302002Y-90271255D01*
X124461729Y-90458271D01*
X124606498Y-90581915D01*
X124648747Y-90618000D01*
X124648750Y-90618001D01*
X124858446Y-90746503D01*
X124858449Y-90746505D01*
X125085663Y-90840619D01*
X125085668Y-90840621D01*
X125324815Y-90898036D01*
X125570000Y-90917332D01*
X125815185Y-90898036D01*
X126054332Y-90840621D01*
X126167943Y-90793562D01*
X126281550Y-90746505D01*
X126281551Y-90746504D01*
X126281554Y-90746503D01*
X126491255Y-90617998D01*
X126678271Y-90458271D01*
X126837998Y-90271255D01*
X126966503Y-90061554D01*
X127060621Y-89834332D01*
X127118036Y-89595185D01*
X127137332Y-89350000D01*
X127118036Y-89104815D01*
X127060621Y-88865668D01*
X127059144Y-88862101D01*
X126966505Y-88638449D01*
X126966503Y-88638446D01*
X126838001Y-88428750D01*
X126838000Y-88428747D01*
X126786642Y-88368615D01*
X126678271Y-88241729D01*
X126554625Y-88136125D01*
X126491252Y-88081999D01*
X126491249Y-88081998D01*
X126326674Y-87981146D01*
X126279799Y-87929334D01*
X126267936Y-87864611D01*
X126268187Y-87861740D01*
X125597447Y-87191000D01*
X125620160Y-87191000D01*
X125717061Y-87165036D01*
X125803940Y-87114876D01*
X125874876Y-87043940D01*
X125925036Y-86957061D01*
X125951000Y-86860160D01*
X125951000Y-86837447D01*
X126621741Y-87508188D01*
X126667094Y-87443417D01*
X126667100Y-87443407D01*
X126760419Y-87243284D01*
X126760424Y-87243270D01*
X126817573Y-87029986D01*
X126817575Y-87029976D01*
X126836821Y-86810000D01*
X126836821Y-86809999D01*
X126817575Y-86590023D01*
X126817573Y-86590013D01*
X126760424Y-86376729D01*
X126760420Y-86376720D01*
X126667096Y-86176586D01*
X126621741Y-86111811D01*
X126621740Y-86111810D01*
X125951000Y-86782551D01*
X125951000Y-86759840D01*
X125925036Y-86662939D01*
X125874876Y-86576060D01*
X125803940Y-86505124D01*
X125717061Y-86454964D01*
X125620160Y-86429000D01*
X125597448Y-86429000D01*
X126268187Y-85758259D01*
X126267936Y-85755389D01*
X126281701Y-85686889D01*
X126326673Y-85638853D01*
X126408400Y-85588772D01*
X126473188Y-85570500D01*
X147832351Y-85570500D01*
X147832352Y-85570500D01*
X148034535Y-85538477D01*
X148150547Y-85500782D01*
X148150548Y-85500782D01*
X148229214Y-85475222D01*
X148229216Y-85475220D01*
X148229219Y-85475220D01*
X148332870Y-85422407D01*
X148411611Y-85382287D01*
X148577219Y-85261966D01*
X149491966Y-84347219D01*
X149612286Y-84181611D01*
X149612287Y-84181610D01*
X149705220Y-83999219D01*
X149768477Y-83804534D01*
X149800500Y-83602352D01*
X149800500Y-73405123D01*
X149820185Y-73338084D01*
X149858524Y-73300132D01*
X150002262Y-73209816D01*
X150129816Y-73082262D01*
X150225789Y-72929522D01*
X150285368Y-72759255D01*
X150300500Y-72624954D01*
X150300500Y-69535046D01*
X150285368Y-69400745D01*
X150225789Y-69230478D01*
X150129816Y-69077738D01*
X150002262Y-68950184D01*
X149849523Y-68854211D01*
X149679254Y-68794631D01*
X149679249Y-68794630D01*
X149544960Y-68779500D01*
X149544954Y-68779500D01*
X146455046Y-68779500D01*
X146455039Y-68779500D01*
X146320750Y-68794630D01*
X146320745Y-68794631D01*
X146150476Y-68854211D01*
X145997737Y-68950184D01*
X145870184Y-69077737D01*
X145774211Y-69230476D01*
X145714631Y-69400745D01*
X145714630Y-69400750D01*
X145699500Y-69535039D01*
X145699500Y-72624960D01*
X145714630Y-72759249D01*
X145714631Y-72759254D01*
X145774211Y-72929523D01*
X145870184Y-73082262D01*
X145997738Y-73209816D01*
X146150478Y-73305789D01*
X146242772Y-73338084D01*
X146320745Y-73365368D01*
X146320750Y-73365369D01*
X146411246Y-73375565D01*
X146455040Y-73380499D01*
X146455043Y-73380500D01*
X146455046Y-73380500D01*
X147075500Y-73380500D01*
X147142539Y-73400185D01*
X147188294Y-73452989D01*
X147199500Y-73504500D01*
X147199500Y-82845500D01*
X147179815Y-82912539D01*
X147127011Y-82958294D01*
X147075500Y-82969500D01*
X126473188Y-82969500D01*
X126408398Y-82951227D01*
X126326674Y-82901146D01*
X126279799Y-82849334D01*
X126267936Y-82784611D01*
X126268187Y-82781740D01*
X125597448Y-82111000D01*
X125620160Y-82111000D01*
X125717061Y-82085036D01*
X125803940Y-82034876D01*
X125874876Y-81963940D01*
X125925036Y-81877061D01*
X125951000Y-81780160D01*
X125951000Y-81757447D01*
X126621741Y-82428188D01*
X126667094Y-82363417D01*
X126667100Y-82363407D01*
X126760419Y-82163284D01*
X126760424Y-82163270D01*
X126817573Y-81949986D01*
X126817575Y-81949976D01*
X126836821Y-81730000D01*
X126836821Y-81729999D01*
X126817575Y-81510023D01*
X126817573Y-81510013D01*
X126760424Y-81296729D01*
X126760420Y-81296720D01*
X126667096Y-81096586D01*
X126621741Y-81031811D01*
X126621740Y-81031810D01*
X125951000Y-81702551D01*
X125951000Y-81679840D01*
X125925036Y-81582939D01*
X125874876Y-81496060D01*
X125803940Y-81425124D01*
X125717061Y-81374964D01*
X125620160Y-81349000D01*
X125597448Y-81349000D01*
X126268188Y-80678259D01*
X126268187Y-80678258D01*
X126203411Y-80632901D01*
X126203405Y-80632898D01*
X126073627Y-80572382D01*
X126021187Y-80526210D01*
X126002035Y-80459017D01*
X126022251Y-80392135D01*
X126073627Y-80347618D01*
X126203407Y-80287100D01*
X126203417Y-80287094D01*
X126268188Y-80241741D01*
X125597448Y-79571000D01*
X125620160Y-79571000D01*
X125717061Y-79545036D01*
X125803940Y-79494876D01*
X125874876Y-79423940D01*
X125925036Y-79337061D01*
X125951000Y-79240160D01*
X125951000Y-79217447D01*
X126621741Y-79888188D01*
X126667094Y-79823417D01*
X126667100Y-79823407D01*
X126760419Y-79623284D01*
X126760424Y-79623270D01*
X126817573Y-79409986D01*
X126817575Y-79409976D01*
X126836821Y-79190000D01*
X126836821Y-79189999D01*
X126817575Y-78970023D01*
X126817573Y-78970013D01*
X126760424Y-78756729D01*
X126760420Y-78756720D01*
X126667096Y-78556586D01*
X126621741Y-78491811D01*
X126621740Y-78491810D01*
X125951000Y-79162551D01*
X125951000Y-79139840D01*
X125925036Y-79042939D01*
X125874876Y-78956060D01*
X125803940Y-78885124D01*
X125717061Y-78834964D01*
X125620160Y-78809000D01*
X125597448Y-78809000D01*
X126268187Y-78138259D01*
X126267936Y-78135389D01*
X126281701Y-78066889D01*
X126326671Y-78018855D01*
X126491255Y-77917998D01*
X126678271Y-77758271D01*
X126837998Y-77571255D01*
X126966503Y-77361554D01*
X127060621Y-77134332D01*
X127118036Y-76895185D01*
X127137332Y-76650000D01*
X127118036Y-76404815D01*
X127060621Y-76165668D01*
X127060619Y-76165663D01*
X126966505Y-75938449D01*
X126966503Y-75938446D01*
X126888773Y-75811601D01*
X126870500Y-75746811D01*
X126870500Y-65999998D01*
X145994891Y-65999998D01*
X145994891Y-66000001D01*
X146015300Y-66285362D01*
X146076109Y-66564895D01*
X146176091Y-66832958D01*
X146313191Y-67084038D01*
X146313196Y-67084046D01*
X146419882Y-67226561D01*
X146419883Y-67226562D01*
X147314767Y-66331677D01*
X147326497Y-66359995D01*
X147409670Y-66484472D01*
X147515528Y-66590330D01*
X147640005Y-66673503D01*
X147668320Y-66685231D01*
X146773436Y-67580115D01*
X146915960Y-67686807D01*
X146915961Y-67686808D01*
X147167042Y-67823908D01*
X147167041Y-67823908D01*
X147435104Y-67923890D01*
X147714637Y-67984699D01*
X147999999Y-68005109D01*
X148000001Y-68005109D01*
X148285362Y-67984699D01*
X148564895Y-67923890D01*
X148832958Y-67823908D01*
X149084047Y-67686803D01*
X149226561Y-67580116D01*
X149226562Y-67580115D01*
X148331679Y-66685231D01*
X148359995Y-66673503D01*
X148484472Y-66590330D01*
X148590330Y-66484472D01*
X148673503Y-66359995D01*
X148685231Y-66331678D01*
X149580115Y-67226562D01*
X149580116Y-67226561D01*
X149686803Y-67084047D01*
X149823908Y-66832958D01*
X149923890Y-66564895D01*
X149984699Y-66285362D01*
X150005109Y-66000001D01*
X150005109Y-65999998D01*
X149984699Y-65714637D01*
X149923890Y-65435104D01*
X149823908Y-65167041D01*
X149686808Y-64915961D01*
X149686807Y-64915960D01*
X149580115Y-64773436D01*
X148685231Y-65668320D01*
X148673503Y-65640005D01*
X148590330Y-65515528D01*
X148484472Y-65409670D01*
X148359995Y-65326497D01*
X148331678Y-65314767D01*
X149226562Y-64419883D01*
X149226561Y-64419882D01*
X149084046Y-64313196D01*
X149084038Y-64313191D01*
X148832957Y-64176091D01*
X148832958Y-64176091D01*
X148564895Y-64076109D01*
X148285362Y-64015300D01*
X148000001Y-63994891D01*
X147999999Y-63994891D01*
X147714637Y-64015300D01*
X147435104Y-64076109D01*
X147167041Y-64176091D01*
X146915961Y-64313191D01*
X146915953Y-64313196D01*
X146773437Y-64419882D01*
X146773436Y-64419883D01*
X147668321Y-65314767D01*
X147640005Y-65326497D01*
X147515528Y-65409670D01*
X147409670Y-65515528D01*
X147326497Y-65640005D01*
X147314768Y-65668321D01*
X146419883Y-64773436D01*
X146419882Y-64773437D01*
X146313196Y-64915953D01*
X146313191Y-64915961D01*
X146176091Y-65167041D01*
X146076109Y-65435104D01*
X146015300Y-65714637D01*
X145994891Y-65999998D01*
X126870500Y-65999998D01*
X126870500Y-63520047D01*
X126890185Y-63453008D01*
X126906819Y-63432366D01*
X128752366Y-61586819D01*
X128813689Y-61553334D01*
X128840047Y-61550500D01*
X131294957Y-61550500D01*
X131294958Y-61550499D01*
X131362104Y-61542934D01*
X131429249Y-61535369D01*
X131429252Y-61535368D01*
X131429255Y-61535368D01*
X131599522Y-61475789D01*
X131752262Y-61379816D01*
X131879816Y-61252262D01*
X131975789Y-61099522D01*
X132035368Y-60929255D01*
X132050500Y-60794954D01*
X132050500Y-57205046D01*
X132035368Y-57070745D01*
X131975789Y-56900478D01*
X131879816Y-56747738D01*
X131752262Y-56620184D01*
X131693207Y-56583077D01*
X131599523Y-56524211D01*
X131429254Y-56464631D01*
X131429249Y-56464630D01*
X131294960Y-56449500D01*
X131294954Y-56449500D01*
X127705046Y-56449500D01*
X127705039Y-56449500D01*
X127570750Y-56464630D01*
X127570745Y-56464631D01*
X127400476Y-56524211D01*
X127241842Y-56623889D01*
X127240501Y-56621755D01*
X127186582Y-56643746D01*
X127117891Y-56630966D01*
X127067014Y-56583077D01*
X127049999Y-56520386D01*
X127050000Y-56250000D01*
X125300000Y-56250000D01*
X125300000Y-55750000D01*
X127049999Y-55750000D01*
X127049999Y-55031423D01*
X127049998Y-55031411D01*
X127047205Y-54978808D01*
X127002762Y-54749012D01*
X126920120Y-54530024D01*
X126801660Y-54328158D01*
X126801655Y-54328151D01*
X126650788Y-54149213D01*
X126650786Y-54149211D01*
X126471848Y-53998344D01*
X126471841Y-53998339D01*
X126269975Y-53879879D01*
X126050987Y-53797237D01*
X125821190Y-53752794D01*
X125768617Y-53750001D01*
X125768579Y-53750000D01*
X125050000Y-53750000D01*
X125050000Y-54566988D01*
X124992993Y-54534075D01*
X124865826Y-54500000D01*
X124734174Y-54500000D01*
X124607007Y-54534075D01*
X124550000Y-54566988D01*
X124550000Y-53750000D01*
X123831423Y-53750000D01*
X123831411Y-53750001D01*
X123778808Y-53752794D01*
X123549012Y-53797237D01*
X123330024Y-53879879D01*
X123128158Y-53998339D01*
X123128151Y-53998344D01*
X122949213Y-54149211D01*
X122949211Y-54149213D01*
X122798344Y-54328151D01*
X122798339Y-54328158D01*
X122679879Y-54530024D01*
X122597237Y-54749012D01*
X122552794Y-54978808D01*
X122552794Y-54978809D01*
X122550001Y-55031382D01*
X122550000Y-55031421D01*
X122550000Y-55750000D01*
X124300000Y-55750000D01*
X124300000Y-56250000D01*
X122550001Y-56250000D01*
X122550001Y-56968588D01*
X122552794Y-57021191D01*
X122597237Y-57250987D01*
X122679879Y-57469975D01*
X122798339Y-57671841D01*
X122798344Y-57671848D01*
X122949211Y-57850786D01*
X122949213Y-57850788D01*
X123128151Y-58001655D01*
X123128158Y-58001660D01*
X123330024Y-58120120D01*
X123549012Y-58202762D01*
X123778809Y-58247205D01*
X123831382Y-58249998D01*
X123831421Y-58249999D01*
X124549999Y-58249999D01*
X124550000Y-58249998D01*
X124550000Y-57433012D01*
X124607007Y-57465925D01*
X124734174Y-57500000D01*
X124865826Y-57500000D01*
X124992993Y-57465925D01*
X125050000Y-57433012D01*
X125050000Y-58249999D01*
X125768576Y-58249999D01*
X125768588Y-58249998D01*
X125821191Y-58247205D01*
X126050987Y-58202762D01*
X126269975Y-58120120D01*
X126471841Y-58001660D01*
X126471848Y-58001655D01*
X126650784Y-57850790D01*
X126730698Y-57756007D01*
X126788961Y-57717442D01*
X126858824Y-57716498D01*
X126918107Y-57753474D01*
X126947988Y-57816632D01*
X126949500Y-57835936D01*
X126949500Y-59659953D01*
X126929815Y-59726992D01*
X126913181Y-59747634D01*
X124578036Y-62082778D01*
X124457713Y-62248388D01*
X124437548Y-62287965D01*
X124364778Y-62430783D01*
X124301523Y-62625461D01*
X124301523Y-62625464D01*
X124269500Y-62827648D01*
X124269500Y-75746811D01*
X124251227Y-75811601D01*
X124173496Y-75938446D01*
X124173494Y-75938449D01*
X124079380Y-76165663D01*
X124021963Y-76404820D01*
X124002668Y-76650000D01*
X124021963Y-76895179D01*
X124079380Y-77134336D01*
X124173494Y-77361550D01*
X124173496Y-77361553D01*
X124301998Y-77571249D01*
X124301999Y-77571252D01*
X124302002Y-77571255D01*
X124461729Y-77758271D01*
X124648745Y-77917998D01*
X124813324Y-78018852D01*
X124860199Y-78070663D01*
X124872062Y-78135387D01*
X124871810Y-78138257D01*
X125542553Y-78809000D01*
X125519840Y-78809000D01*
X125422939Y-78834964D01*
X125336060Y-78885124D01*
X125265124Y-78956060D01*
X125214964Y-79042939D01*
X125189000Y-79139840D01*
X125189000Y-79162553D01*
X124518258Y-78491811D01*
X124472901Y-78556590D01*
X124379579Y-78756720D01*
X124379575Y-78756729D01*
X124322426Y-78970013D01*
X124322424Y-78970023D01*
X124303179Y-79189999D01*
X124303179Y-79190000D01*
X124322424Y-79409976D01*
X124322426Y-79409986D01*
X124379575Y-79623270D01*
X124379580Y-79623284D01*
X124472898Y-79823405D01*
X124472901Y-79823411D01*
X124518258Y-79888187D01*
X124518259Y-79888188D01*
X125189000Y-79217447D01*
X125189000Y-79240160D01*
X125214964Y-79337061D01*
X125265124Y-79423940D01*
X125336060Y-79494876D01*
X125422939Y-79545036D01*
X125519840Y-79571000D01*
X125542553Y-79571000D01*
X124871810Y-80241740D01*
X124936589Y-80287098D01*
X125066373Y-80347618D01*
X125118812Y-80393790D01*
X125137964Y-80460984D01*
X125117748Y-80527865D01*
X125066373Y-80572382D01*
X124936590Y-80632901D01*
X124871811Y-80678258D01*
X125542553Y-81349000D01*
X125519840Y-81349000D01*
X125422939Y-81374964D01*
X125336060Y-81425124D01*
X125265124Y-81496060D01*
X125214964Y-81582939D01*
X125189000Y-81679840D01*
X125189000Y-81702553D01*
X124518258Y-81031811D01*
X124472901Y-81096590D01*
X124379579Y-81296720D01*
X124379575Y-81296729D01*
X124322426Y-81510013D01*
X124322424Y-81510023D01*
X124303179Y-81729999D01*
X124303179Y-81730000D01*
X124322424Y-81949976D01*
X124322426Y-81949986D01*
X124379575Y-82163270D01*
X124379580Y-82163284D01*
X124472898Y-82363405D01*
X124472901Y-82363411D01*
X124518258Y-82428187D01*
X124518259Y-82428188D01*
X125189000Y-81757447D01*
X125189000Y-81780160D01*
X125214964Y-81877061D01*
X125265124Y-81963940D01*
X125336060Y-82034876D01*
X125422939Y-82085036D01*
X125519840Y-82111000D01*
X125542553Y-82111000D01*
X124871809Y-82781741D01*
X124872061Y-82784614D01*
X124858294Y-82853114D01*
X124813323Y-82901147D01*
X124648750Y-83001998D01*
X124648747Y-83001999D01*
X124461729Y-83161729D01*
X124301999Y-83348747D01*
X124301998Y-83348750D01*
X124173496Y-83558446D01*
X124173494Y-83558449D01*
X124079380Y-83785663D01*
X124021963Y-84024820D01*
X124002668Y-84270000D01*
X124021963Y-84515179D01*
X124079380Y-84754336D01*
X124173494Y-84981550D01*
X124173496Y-84981553D01*
X124301998Y-85191249D01*
X124301999Y-85191252D01*
X124302002Y-85191255D01*
X124461729Y-85378271D01*
X124648745Y-85537998D01*
X124813324Y-85638852D01*
X124860199Y-85690663D01*
X124872062Y-85755387D01*
X124871810Y-85758257D01*
X125542553Y-86429000D01*
X125519840Y-86429000D01*
X125422939Y-86454964D01*
X125336060Y-86505124D01*
X125265124Y-86576060D01*
X125214964Y-86662939D01*
X125189000Y-86759840D01*
X125189000Y-86782553D01*
X124518258Y-86111811D01*
X124472899Y-86176593D01*
X124472323Y-86177828D01*
X124471925Y-86178278D01*
X124470195Y-86181277D01*
X124469591Y-86180928D01*
X124426141Y-86230259D01*
X124358944Y-86249399D01*
X124292067Y-86229171D01*
X124272269Y-86213084D01*
X124100721Y-86041536D01*
X124100720Y-86041535D01*
X124100719Y-86041534D01*
X123935111Y-85921213D01*
X123843914Y-85874746D01*
X123752723Y-85828281D01*
X123706015Y-85813104D01*
X123655376Y-85796651D01*
X123631503Y-85788894D01*
X123558035Y-85765022D01*
X123383495Y-85737378D01*
X123355852Y-85733000D01*
X123355851Y-85733000D01*
X119623546Y-85733000D01*
X119556507Y-85713315D01*
X119535865Y-85696681D01*
X119336819Y-85497634D01*
X119303334Y-85436311D01*
X119300500Y-85409953D01*
X119300500Y-52185803D01*
X127250000Y-52185803D01*
X127250000Y-52750000D01*
X128066988Y-52750000D01*
X128034075Y-52807007D01*
X128000000Y-52934174D01*
X128000000Y-53065826D01*
X128034075Y-53192993D01*
X128066988Y-53250000D01*
X127250001Y-53250000D01*
X127250001Y-53814197D01*
X127260400Y-53946332D01*
X127315377Y-54164519D01*
X127408428Y-54369374D01*
X127408431Y-54369380D01*
X127536559Y-54554323D01*
X127536569Y-54554335D01*
X127695664Y-54713430D01*
X127695676Y-54713440D01*
X127880619Y-54841568D01*
X127880625Y-54841571D01*
X128085480Y-54934622D01*
X128303667Y-54989599D01*
X128435810Y-54999999D01*
X129249999Y-54999999D01*
X129250000Y-54999998D01*
X129250000Y-53500000D01*
X129750000Y-53500000D01*
X129750000Y-54999999D01*
X130564182Y-54999999D01*
X130564197Y-54999998D01*
X130696332Y-54989599D01*
X130914519Y-54934622D01*
X131119374Y-54841571D01*
X131119380Y-54841568D01*
X131304323Y-54713440D01*
X131304335Y-54713430D01*
X131463430Y-54554335D01*
X131463440Y-54554323D01*
X131591568Y-54369380D01*
X131591571Y-54369374D01*
X131684622Y-54164519D01*
X131739599Y-53946332D01*
X131749999Y-53814196D01*
X131750000Y-53814184D01*
X131750000Y-53250000D01*
X130933012Y-53250000D01*
X130965925Y-53192993D01*
X131000000Y-53065826D01*
X131000000Y-52934174D01*
X130965925Y-52807007D01*
X130933012Y-52750000D01*
X131749999Y-52750000D01*
X131749999Y-52378711D01*
X141649500Y-52378711D01*
X141649500Y-52621288D01*
X141681161Y-52861785D01*
X141743947Y-53096104D01*
X141745520Y-53099901D01*
X141836776Y-53320212D01*
X141958064Y-53530289D01*
X141958066Y-53530292D01*
X141958067Y-53530293D01*
X142105733Y-53722736D01*
X142105739Y-53722743D01*
X142277256Y-53894260D01*
X142277262Y-53894265D01*
X142469711Y-54041936D01*
X142679788Y-54163224D01*
X142903900Y-54256054D01*
X143138211Y-54318838D01*
X143318586Y-54342584D01*
X143378711Y-54350500D01*
X143378712Y-54350500D01*
X143621289Y-54350500D01*
X143669388Y-54344167D01*
X143861789Y-54318838D01*
X144096100Y-54256054D01*
X144320212Y-54163224D01*
X144530289Y-54041936D01*
X144722738Y-53894265D01*
X144894265Y-53722738D01*
X145041936Y-53530289D01*
X145163224Y-53320212D01*
X145256054Y-53096100D01*
X145318838Y-52861789D01*
X145350500Y-52621288D01*
X145350500Y-52378712D01*
X145349798Y-52373383D01*
X145325050Y-52185397D01*
X145318838Y-52138211D01*
X145256054Y-51903900D01*
X145163224Y-51679788D01*
X145041936Y-51469711D01*
X144981018Y-51390321D01*
X144894266Y-51277263D01*
X144894260Y-51277256D01*
X144722743Y-51105739D01*
X144722736Y-51105733D01*
X144530293Y-50958067D01*
X144530292Y-50958066D01*
X144530289Y-50958064D01*
X144320212Y-50836776D01*
X144320205Y-50836773D01*
X144096104Y-50743947D01*
X143861785Y-50681161D01*
X143621289Y-50649500D01*
X143621288Y-50649500D01*
X143378712Y-50649500D01*
X143378711Y-50649500D01*
X143138214Y-50681161D01*
X142903895Y-50743947D01*
X142679794Y-50836773D01*
X142679785Y-50836777D01*
X142469706Y-50958067D01*
X142277263Y-51105733D01*
X142277256Y-51105739D01*
X142105739Y-51277256D01*
X142105733Y-51277263D01*
X141958067Y-51469706D01*
X141836777Y-51679785D01*
X141836773Y-51679794D01*
X141743947Y-51903895D01*
X141681161Y-52138214D01*
X141649500Y-52378711D01*
X131749999Y-52378711D01*
X131749999Y-52185817D01*
X131749998Y-52185802D01*
X131739599Y-52053667D01*
X131684622Y-51835480D01*
X131591571Y-51630625D01*
X131591568Y-51630619D01*
X131463440Y-51445676D01*
X131463430Y-51445664D01*
X131304335Y-51286569D01*
X131304323Y-51286559D01*
X131119380Y-51158431D01*
X131119374Y-51158428D01*
X130914519Y-51065377D01*
X130696332Y-51010400D01*
X130564196Y-51000000D01*
X129750000Y-51000000D01*
X129750000Y-52500000D01*
X129250000Y-52500000D01*
X129250000Y-51000000D01*
X128435817Y-51000000D01*
X128435802Y-51000001D01*
X128303667Y-51010400D01*
X128085480Y-51065377D01*
X127880625Y-51158428D01*
X127880619Y-51158431D01*
X127695676Y-51286559D01*
X127695664Y-51286569D01*
X127536569Y-51445664D01*
X127536559Y-51445676D01*
X127408431Y-51630619D01*
X127408428Y-51630625D01*
X127315377Y-51835480D01*
X127260400Y-52053667D01*
X127250000Y-52185803D01*
X119300500Y-52185803D01*
X119300500Y-46897648D01*
X119268477Y-46695465D01*
X119205218Y-46500776D01*
X119171503Y-46434607D01*
X119112287Y-46318390D01*
X119104556Y-46307749D01*
X118991971Y-46152786D01*
X118847213Y-46008028D01*
X118681613Y-45887715D01*
X118681612Y-45887714D01*
X118681610Y-45887713D01*
X118624653Y-45858691D01*
X118499223Y-45794781D01*
X118338106Y-45742431D01*
X118280431Y-45702993D01*
X118253233Y-45638634D01*
X118265148Y-45569788D01*
X118312392Y-45518312D01*
X118376425Y-45500500D01*
X151375500Y-45500500D01*
X151442539Y-45520185D01*
X151488294Y-45572989D01*
X151499500Y-45624500D01*
X151499500Y-150875500D01*
X151479815Y-150942539D01*
X151427011Y-150988294D01*
X151375500Y-150999500D01*
X50124500Y-150999500D01*
X50057461Y-150979815D01*
X50011706Y-150927011D01*
X50000500Y-150875500D01*
X50000500Y-146378711D01*
X99649500Y-146378711D01*
X99649500Y-146621288D01*
X99681161Y-146861785D01*
X99743947Y-147096104D01*
X99836773Y-147320205D01*
X99836776Y-147320212D01*
X99958064Y-147530289D01*
X99958066Y-147530292D01*
X99958067Y-147530293D01*
X100105733Y-147722736D01*
X100105739Y-147722743D01*
X100277256Y-147894260D01*
X100277262Y-147894265D01*
X100469711Y-148041936D01*
X100679788Y-148163224D01*
X100903900Y-148256054D01*
X101138211Y-148318838D01*
X101318586Y-148342584D01*
X101378711Y-148350500D01*
X101378712Y-148350500D01*
X101621289Y-148350500D01*
X101669388Y-148344167D01*
X101861789Y-148318838D01*
X102096100Y-148256054D01*
X102320212Y-148163224D01*
X102530289Y-148041936D01*
X102722738Y-147894265D01*
X102894265Y-147722738D01*
X103041936Y-147530289D01*
X103163224Y-147320212D01*
X103256054Y-147096100D01*
X103318838Y-146861789D01*
X103350500Y-146621288D01*
X103350500Y-146378712D01*
X103318838Y-146138211D01*
X103256054Y-145903900D01*
X103163224Y-145679788D01*
X103041936Y-145469711D01*
X102894265Y-145277262D01*
X102894260Y-145277256D01*
X102722743Y-145105739D01*
X102722736Y-145105733D01*
X102530293Y-144958067D01*
X102530292Y-144958066D01*
X102530289Y-144958064D01*
X102320212Y-144836776D01*
X102320205Y-144836773D01*
X102096104Y-144743947D01*
X101861785Y-144681161D01*
X101621289Y-144649500D01*
X101621288Y-144649500D01*
X101378712Y-144649500D01*
X101378711Y-144649500D01*
X101138214Y-144681161D01*
X100903895Y-144743947D01*
X100679794Y-144836773D01*
X100679785Y-144836777D01*
X100469706Y-144958067D01*
X100277263Y-145105733D01*
X100277256Y-145105739D01*
X100105739Y-145277256D01*
X100105733Y-145277263D01*
X99958067Y-145469706D01*
X99836777Y-145679785D01*
X99836773Y-145679794D01*
X99743947Y-145903895D01*
X99681161Y-146138214D01*
X99649500Y-146378711D01*
X50000500Y-146378711D01*
X50000500Y-45624500D01*
X50020185Y-45557461D01*
X50072989Y-45511706D01*
X50124500Y-45500500D01*
X52623575Y-45500500D01*
X52690614Y-45520185D01*
G37*
%TD.AperFunction*%
%TA.AperFunction,Conductor*%
G36*
X122170000Y-135278872D02*
G01*
X122366317Y-135226269D01*
X122366326Y-135226265D01*
X122572482Y-135130134D01*
X122758820Y-134999657D01*
X122918343Y-134840135D01*
X122979666Y-134806650D01*
X123049358Y-134811634D01*
X123105291Y-134853506D01*
X123111751Y-134863026D01*
X123161160Y-134943653D01*
X123161161Y-134943656D01*
X123189999Y-134977421D01*
X123324776Y-135135224D01*
X123442082Y-135235413D01*
X123516343Y-135298838D01*
X123516345Y-135298838D01*
X123731141Y-135430466D01*
X123759125Y-135442057D01*
X123813529Y-135485896D01*
X123835596Y-135552190D01*
X123818318Y-135619890D01*
X123799356Y-135644300D01*
X121080477Y-138363181D01*
X121019154Y-138396666D01*
X120992796Y-138399500D01*
X112007204Y-138399500D01*
X111940165Y-138379815D01*
X111919523Y-138363181D01*
X110222523Y-136666181D01*
X110189038Y-136604858D01*
X110194022Y-136535166D01*
X110235894Y-136479233D01*
X110301358Y-136454816D01*
X110310204Y-136454500D01*
X113032610Y-136454500D01*
X113032611Y-136454500D01*
X113203701Y-136427402D01*
X113368445Y-136373873D01*
X113522788Y-136295232D01*
X113662928Y-136193414D01*
X114214573Y-135641767D01*
X114275896Y-135608283D01*
X114295172Y-135606210D01*
X114295143Y-135605831D01*
X114299998Y-135605448D01*
X114300000Y-135605449D01*
X114551148Y-135585683D01*
X114796111Y-135526873D01*
X115028859Y-135430466D01*
X115243659Y-135298836D01*
X115435224Y-135135224D01*
X115475710Y-135087819D01*
X115534216Y-135049627D01*
X115604084Y-135049128D01*
X115663130Y-135086482D01*
X115664235Y-135087756D01*
X115700429Y-135130134D01*
X115704776Y-135135224D01*
X115896343Y-135298838D01*
X115896346Y-135298839D01*
X116111140Y-135430466D01*
X116216751Y-135474211D01*
X116343889Y-135526873D01*
X116588852Y-135585683D01*
X116840000Y-135605449D01*
X117091148Y-135585683D01*
X117336111Y-135526873D01*
X117568859Y-135430466D01*
X117783659Y-135298836D01*
X117975224Y-135135224D01*
X118138836Y-134943659D01*
X118188249Y-134863023D01*
X118240058Y-134816150D01*
X118308988Y-134804727D01*
X118373151Y-134832384D01*
X118381656Y-134840134D01*
X118541179Y-134999657D01*
X118727517Y-135130134D01*
X118933673Y-135226265D01*
X118933682Y-135226269D01*
X119129999Y-135278872D01*
X119130000Y-135278871D01*
X119130000Y-134315686D01*
X119134394Y-134320080D01*
X119225606Y-134372741D01*
X119327339Y-134400000D01*
X119432661Y-134400000D01*
X119534394Y-134372741D01*
X119625606Y-134320080D01*
X119630000Y-134315686D01*
X119630000Y-135278872D01*
X119826317Y-135226269D01*
X119826326Y-135226265D01*
X120032482Y-135130134D01*
X120218820Y-134999657D01*
X120379657Y-134838820D01*
X120510134Y-134652481D01*
X120510135Y-134652479D01*
X120537618Y-134593543D01*
X120583790Y-134541103D01*
X120650983Y-134521951D01*
X120717864Y-134542166D01*
X120762382Y-134593543D01*
X120789864Y-134652479D01*
X120789865Y-134652481D01*
X120920342Y-134838820D01*
X121081179Y-134999657D01*
X121267517Y-135130134D01*
X121473673Y-135226265D01*
X121473682Y-135226269D01*
X121669999Y-135278872D01*
X121670000Y-135278871D01*
X121670000Y-134315686D01*
X121674394Y-134320080D01*
X121765606Y-134372741D01*
X121867339Y-134400000D01*
X121972661Y-134400000D01*
X122074394Y-134372741D01*
X122165606Y-134320080D01*
X122170000Y-134315686D01*
X122170000Y-135278872D01*
G37*
%TD.AperFunction*%
%TA.AperFunction,Conductor*%
G36*
X82339920Y-133754394D02*
G01*
X82287259Y-133845606D01*
X82260000Y-133947339D01*
X82260000Y-134052661D01*
X82287259Y-134154394D01*
X82339920Y-134245606D01*
X82344314Y-134250000D01*
X80435686Y-134250000D01*
X80440080Y-134245606D01*
X80492741Y-134154394D01*
X80520000Y-134052661D01*
X80520000Y-133947339D01*
X80492741Y-133845606D01*
X80440080Y-133754394D01*
X80435686Y-133750000D01*
X82344314Y-133750000D01*
X82339920Y-133754394D01*
G37*
%TD.AperFunction*%
%TA.AperFunction,Conductor*%
G36*
X121599920Y-133754394D02*
G01*
X121547259Y-133845606D01*
X121520000Y-133947339D01*
X121520000Y-134052661D01*
X121547259Y-134154394D01*
X121599920Y-134245606D01*
X121604314Y-134250000D01*
X119695686Y-134250000D01*
X119700080Y-134245606D01*
X119752741Y-134154394D01*
X119780000Y-134052661D01*
X119780000Y-133947339D01*
X119752741Y-133845606D01*
X119700080Y-133754394D01*
X119695686Y-133750000D01*
X121604314Y-133750000D01*
X121599920Y-133754394D01*
G37*
%TD.AperFunction*%
%TA.AperFunction,Conductor*%
G36*
X81430992Y-132074185D02*
G01*
X81451634Y-132090819D01*
X82034728Y-132673913D01*
X82068213Y-132735236D01*
X82063229Y-132804928D01*
X82021357Y-132860861D01*
X82009066Y-132868970D01*
X82007531Y-132869856D01*
X81821179Y-133000342D01*
X81660342Y-133161179D01*
X81529865Y-133347517D01*
X81502382Y-133406457D01*
X81456210Y-133458896D01*
X81389016Y-133478048D01*
X81322135Y-133457832D01*
X81277618Y-133406457D01*
X81250134Y-133347517D01*
X81119657Y-133161179D01*
X80958820Y-133000342D01*
X80772482Y-132869865D01*
X80566328Y-132773734D01*
X80370000Y-132721127D01*
X80370000Y-133684314D01*
X80365606Y-133679920D01*
X80274394Y-133627259D01*
X80172661Y-133600000D01*
X80067339Y-133600000D01*
X79965606Y-133627259D01*
X79874394Y-133679920D01*
X79870000Y-133684314D01*
X79870000Y-132721127D01*
X79673671Y-132773734D01*
X79467517Y-132869865D01*
X79281183Y-133000339D01*
X79121656Y-133159866D01*
X79060333Y-133193350D01*
X78990641Y-133188366D01*
X78934708Y-133146494D01*
X78928247Y-133136973D01*
X78878837Y-133056343D01*
X78878836Y-133056341D01*
X78715224Y-132864776D01*
X78563552Y-132735236D01*
X78523656Y-132701161D01*
X78523653Y-132701160D01*
X78308859Y-132569533D01*
X78076109Y-132473126D01*
X78076111Y-132473126D01*
X77868248Y-132423223D01*
X77809514Y-132390330D01*
X77685365Y-132266181D01*
X77651880Y-132204858D01*
X77656864Y-132135166D01*
X77698736Y-132079233D01*
X77764200Y-132054816D01*
X77773046Y-132054500D01*
X81363953Y-132054500D01*
X81430992Y-132074185D01*
G37*
%TD.AperFunction*%
%TA.AperFunction,Conductor*%
G36*
X124239990Y-132168185D02*
G01*
X124285745Y-132220989D01*
X124295689Y-132290147D01*
X124266664Y-132353703D01*
X124260632Y-132360181D01*
X124230482Y-132390331D01*
X124171748Y-132423224D01*
X123963888Y-132473126D01*
X123731140Y-132569533D01*
X123516346Y-132701160D01*
X123516343Y-132701161D01*
X123324776Y-132864776D01*
X123161161Y-133056343D01*
X123161160Y-133056346D01*
X123111751Y-133136974D01*
X123059939Y-133183849D01*
X122991009Y-133195272D01*
X122926847Y-133167614D01*
X122918343Y-133159865D01*
X122758820Y-133000342D01*
X122572482Y-132869865D01*
X122366328Y-132773734D01*
X122170000Y-132721127D01*
X122170000Y-133684314D01*
X122165606Y-133679920D01*
X122074394Y-133627259D01*
X121972661Y-133600000D01*
X121867339Y-133600000D01*
X121765606Y-133627259D01*
X121674394Y-133679920D01*
X121670000Y-133684314D01*
X121670000Y-132721127D01*
X121473671Y-132773734D01*
X121267517Y-132869865D01*
X121081179Y-133000342D01*
X120920342Y-133161179D01*
X120789865Y-133347517D01*
X120762382Y-133406457D01*
X120716210Y-133458896D01*
X120649016Y-133478048D01*
X120582135Y-133457832D01*
X120537618Y-133406457D01*
X120510134Y-133347517D01*
X120379657Y-133161179D01*
X120218820Y-133000342D01*
X120032478Y-132869863D01*
X120030947Y-132868979D01*
X120030407Y-132868413D01*
X120028048Y-132866761D01*
X120028380Y-132866286D01*
X119982733Y-132818410D01*
X119969513Y-132749803D01*
X119995483Y-132684939D01*
X120005256Y-132673928D01*
X120494366Y-132184819D01*
X120555689Y-132151334D01*
X120582047Y-132148500D01*
X124172951Y-132148500D01*
X124239990Y-132168185D01*
G37*
%TD.AperFunction*%
%TA.AperFunction,Conductor*%
G36*
X93559835Y-93120185D02*
G01*
X93580477Y-93136819D01*
X102917960Y-102474302D01*
X102951445Y-102535625D01*
X102946461Y-102605317D01*
X102904589Y-102661250D01*
X102839125Y-102685667D01*
X102798186Y-102681758D01*
X102735413Y-102664938D01*
X102735403Y-102664936D01*
X102500001Y-102644341D01*
X102499999Y-102644341D01*
X102264596Y-102664936D01*
X102264586Y-102664938D01*
X102036344Y-102726094D01*
X102036335Y-102726098D01*
X101822171Y-102825964D01*
X101822169Y-102825965D01*
X101628597Y-102961505D01*
X101461505Y-103128597D01*
X101325965Y-103322169D01*
X101325964Y-103322171D01*
X101226098Y-103536335D01*
X101226094Y-103536344D01*
X101164938Y-103764586D01*
X101164936Y-103764596D01*
X101144341Y-103999999D01*
X101144341Y-104000000D01*
X101164936Y-104235403D01*
X101164938Y-104235413D01*
X101226094Y-104463655D01*
X101226096Y-104463659D01*
X101226097Y-104463663D01*
X101246788Y-104508034D01*
X101325965Y-104677830D01*
X101325967Y-104677834D01*
X101366285Y-104735413D01*
X101461505Y-104871401D01*
X101628599Y-105038495D01*
X101822170Y-105174035D01*
X101826112Y-105175873D01*
X101861389Y-105200574D01*
X103008034Y-106347219D01*
X112163181Y-115502365D01*
X112196666Y-115563688D01*
X112199500Y-115590046D01*
X112199500Y-119604857D01*
X112179815Y-119671896D01*
X112127011Y-119717651D01*
X112083522Y-119725141D01*
X111400000Y-120408663D01*
X111400000Y-120402451D01*
X111372741Y-120300718D01*
X111320080Y-120209506D01*
X111245606Y-120135032D01*
X111154394Y-120082371D01*
X111052661Y-120055112D01*
X111046448Y-120055112D01*
X111725472Y-119376086D01*
X111652478Y-119324975D01*
X111446331Y-119228847D01*
X111446317Y-119228842D01*
X111226610Y-119169972D01*
X111226599Y-119169970D01*
X111000002Y-119150146D01*
X110999998Y-119150146D01*
X110773400Y-119169970D01*
X110773389Y-119169972D01*
X110553682Y-119228842D01*
X110553673Y-119228846D01*
X110347516Y-119324978D01*
X110347512Y-119324980D01*
X110274526Y-119376085D01*
X110274526Y-119376086D01*
X110953553Y-120055112D01*
X110947339Y-120055112D01*
X110845606Y-120082371D01*
X110754394Y-120135032D01*
X110679920Y-120209506D01*
X110627259Y-120300718D01*
X110600000Y-120402451D01*
X110600000Y-120408664D01*
X109920974Y-119729638D01*
X109920973Y-119729638D01*
X109869868Y-119802624D01*
X109869866Y-119802628D01*
X109773734Y-120008785D01*
X109773730Y-120008794D01*
X109714860Y-120228501D01*
X109714858Y-120228512D01*
X109695034Y-120455109D01*
X109695034Y-120455114D01*
X109714858Y-120681711D01*
X109714860Y-120681722D01*
X109767501Y-120878180D01*
X109765838Y-120948029D01*
X109726675Y-121005892D01*
X109713703Y-121015264D01*
X109697738Y-121025296D01*
X109697735Y-121025298D01*
X109570184Y-121152849D01*
X109474211Y-121305588D01*
X109414631Y-121475857D01*
X109414630Y-121475862D01*
X109399500Y-121610151D01*
X109399500Y-123300072D01*
X109414630Y-123434361D01*
X109414631Y-123434366D01*
X109474211Y-123604635D01*
X109570184Y-123757374D01*
X109663181Y-123850371D01*
X109696666Y-123911694D01*
X109699500Y-123938052D01*
X109699500Y-125722357D01*
X109709653Y-125786457D01*
X109717483Y-125835894D01*
X109719405Y-125848028D01*
X109731522Y-125924530D01*
X109794778Y-126119216D01*
X109799686Y-126128848D01*
X109814738Y-126158389D01*
X109887713Y-126301611D01*
X110008034Y-126467219D01*
X110008036Y-126467221D01*
X110150330Y-126609515D01*
X110183223Y-126668249D01*
X110233126Y-126876111D01*
X110329533Y-127108859D01*
X110461160Y-127323653D01*
X110461161Y-127323656D01*
X110508991Y-127379657D01*
X110624776Y-127515224D01*
X110731376Y-127606269D01*
X110816343Y-127678838D01*
X110816346Y-127678839D01*
X111031140Y-127810466D01*
X111263889Y-127906873D01*
X111508852Y-127965683D01*
X111760000Y-127985449D01*
X112011148Y-127965683D01*
X112256111Y-127906873D01*
X112488859Y-127810466D01*
X112703659Y-127678836D01*
X112895224Y-127515224D01*
X112935710Y-127467819D01*
X112994216Y-127429627D01*
X113064084Y-127429128D01*
X113123130Y-127466482D01*
X113124235Y-127467756D01*
X113163081Y-127513239D01*
X113164776Y-127515224D01*
X113356343Y-127678838D01*
X113356346Y-127678839D01*
X113571140Y-127810466D01*
X113803889Y-127906873D01*
X114048852Y-127965683D01*
X114300000Y-127985449D01*
X114551148Y-127965683D01*
X114796111Y-127906873D01*
X115028859Y-127810466D01*
X115243659Y-127678836D01*
X115435224Y-127515224D01*
X115475710Y-127467819D01*
X115534216Y-127429627D01*
X115604084Y-127429128D01*
X115663130Y-127466482D01*
X115664235Y-127467756D01*
X115703081Y-127513239D01*
X115704776Y-127515224D01*
X115896343Y-127678838D01*
X115896346Y-127678839D01*
X116111140Y-127810466D01*
X116343889Y-127906873D01*
X116551749Y-127956775D01*
X116610483Y-127989668D01*
X118723133Y-130102318D01*
X118756618Y-130163641D01*
X118751634Y-130233333D01*
X118723133Y-130277680D01*
X116610483Y-132390330D01*
X116551750Y-132423223D01*
X116343886Y-132473127D01*
X116111140Y-132569533D01*
X115896346Y-132701160D01*
X115896343Y-132701161D01*
X115704776Y-132864776D01*
X115664290Y-132912179D01*
X115605783Y-132950372D01*
X115535915Y-132950870D01*
X115476869Y-132913516D01*
X115475710Y-132912179D01*
X115439570Y-132869865D01*
X115435224Y-132864776D01*
X115283552Y-132735236D01*
X115243656Y-132701161D01*
X115243653Y-132701160D01*
X115028859Y-132569533D01*
X114796110Y-132473126D01*
X114551151Y-132414317D01*
X114300000Y-132394551D01*
X114048848Y-132414317D01*
X113803889Y-132473126D01*
X113571140Y-132569533D01*
X113356349Y-132701158D01*
X113356327Y-132701174D01*
X113355516Y-132701867D01*
X113355145Y-132702032D01*
X113352404Y-132704025D01*
X113351985Y-132703448D01*
X113291749Y-132730426D01*
X113222665Y-132719976D01*
X113187321Y-132695243D01*
X113062262Y-132570184D01*
X112909523Y-132474211D01*
X112739254Y-132414631D01*
X112739249Y-132414630D01*
X112604960Y-132399500D01*
X112604954Y-132399500D01*
X111767204Y-132399500D01*
X111700165Y-132379815D01*
X111679523Y-132363181D01*
X109136819Y-129820477D01*
X109103334Y-129759154D01*
X109100500Y-129732796D01*
X109100500Y-116913389D01*
X109073402Y-116742302D01*
X109073402Y-116742299D01*
X109019873Y-116577555D01*
X108941232Y-116423212D01*
X108839414Y-116283072D01*
X108716928Y-116160586D01*
X85868523Y-93312181D01*
X85835038Y-93250858D01*
X85840022Y-93181166D01*
X85881894Y-93125233D01*
X85947358Y-93100816D01*
X85956204Y-93100500D01*
X93492796Y-93100500D01*
X93559835Y-93120185D01*
G37*
%TD.AperFunction*%
%TA.AperFunction,Conductor*%
G36*
X80370000Y-127658872D02*
G01*
X80566317Y-127606269D01*
X80566326Y-127606265D01*
X80772482Y-127510134D01*
X80958820Y-127379657D01*
X81119657Y-127218820D01*
X81250134Y-127032481D01*
X81250135Y-127032479D01*
X81277618Y-126973543D01*
X81323790Y-126921103D01*
X81390983Y-126901951D01*
X81457864Y-126922166D01*
X81502382Y-126973543D01*
X81529864Y-127032479D01*
X81529865Y-127032481D01*
X81660342Y-127218820D01*
X81821179Y-127379657D01*
X82007519Y-127510135D01*
X82009040Y-127511013D01*
X82009576Y-127511575D01*
X82011952Y-127513239D01*
X82011617Y-127513716D01*
X82057259Y-127561577D01*
X82070486Y-127630183D01*
X82044523Y-127695049D01*
X82034728Y-127706085D01*
X81577634Y-128163181D01*
X81516311Y-128196666D01*
X81489953Y-128199500D01*
X78997627Y-128199500D01*
X78930588Y-128179815D01*
X78884833Y-128127011D01*
X78874889Y-128057853D01*
X78875141Y-128056183D01*
X78880500Y-128022352D01*
X78880500Y-127817648D01*
X78880500Y-127355914D01*
X78898773Y-127291124D01*
X78928249Y-127243024D01*
X78980059Y-127196150D01*
X79048989Y-127184727D01*
X79113152Y-127212384D01*
X79121656Y-127220134D01*
X79281179Y-127379657D01*
X79467517Y-127510134D01*
X79673673Y-127606265D01*
X79673682Y-127606269D01*
X79869999Y-127658872D01*
X79870000Y-127658871D01*
X79870000Y-126695686D01*
X79874394Y-126700080D01*
X79965606Y-126752741D01*
X80067339Y-126780000D01*
X80172661Y-126780000D01*
X80274394Y-126752741D01*
X80365606Y-126700080D01*
X80370000Y-126695686D01*
X80370000Y-127658872D01*
G37*
%TD.AperFunction*%
%TA.AperFunction,Conductor*%
G36*
X122170000Y-127658872D02*
G01*
X122366317Y-127606269D01*
X122366326Y-127606265D01*
X122572482Y-127510134D01*
X122758820Y-127379657D01*
X122918343Y-127220135D01*
X122979666Y-127186650D01*
X123049358Y-127191634D01*
X123105291Y-127233506D01*
X123111751Y-127243026D01*
X123161160Y-127323653D01*
X123161161Y-127323656D01*
X123208991Y-127379657D01*
X123324776Y-127515224D01*
X123431376Y-127606269D01*
X123516343Y-127678838D01*
X123516346Y-127678839D01*
X123731140Y-127810466D01*
X123963889Y-127906873D01*
X124164046Y-127954926D01*
X124224638Y-127989717D01*
X124256802Y-128051743D01*
X124250326Y-128121312D01*
X124207267Y-128176336D01*
X124141294Y-128199345D01*
X124135099Y-128199500D01*
X120550047Y-128199500D01*
X120483008Y-128179815D01*
X120462366Y-128163181D01*
X120005270Y-127706085D01*
X119971785Y-127644762D01*
X119976769Y-127575070D01*
X120018641Y-127519137D01*
X120030973Y-127511004D01*
X120032490Y-127510128D01*
X120218820Y-127379657D01*
X120379657Y-127218820D01*
X120510134Y-127032481D01*
X120510135Y-127032479D01*
X120537618Y-126973543D01*
X120583790Y-126921103D01*
X120650983Y-126901951D01*
X120717864Y-126922166D01*
X120762382Y-126973543D01*
X120789864Y-127032479D01*
X120789865Y-127032481D01*
X120920342Y-127218820D01*
X121081179Y-127379657D01*
X121267517Y-127510134D01*
X121473673Y-127606265D01*
X121473682Y-127606269D01*
X121669999Y-127658872D01*
X121670000Y-127658871D01*
X121670000Y-126695686D01*
X121674394Y-126700080D01*
X121765606Y-126752741D01*
X121867339Y-126780000D01*
X121972661Y-126780000D01*
X122074394Y-126752741D01*
X122165606Y-126700080D01*
X122170000Y-126695686D01*
X122170000Y-127658872D01*
G37*
%TD.AperFunction*%
%TA.AperFunction,Conductor*%
G36*
X82339920Y-126134394D02*
G01*
X82287259Y-126225606D01*
X82260000Y-126327339D01*
X82260000Y-126432661D01*
X82287259Y-126534394D01*
X82339920Y-126625606D01*
X82344314Y-126630000D01*
X80435686Y-126630000D01*
X80440080Y-126625606D01*
X80492741Y-126534394D01*
X80520000Y-126432661D01*
X80520000Y-126327339D01*
X80492741Y-126225606D01*
X80440080Y-126134394D01*
X80435686Y-126130000D01*
X82344314Y-126130000D01*
X82339920Y-126134394D01*
G37*
%TD.AperFunction*%
%TA.AperFunction,Conductor*%
G36*
X121599920Y-126134394D02*
G01*
X121547259Y-126225606D01*
X121520000Y-126327339D01*
X121520000Y-126432661D01*
X121547259Y-126534394D01*
X121599920Y-126625606D01*
X121604314Y-126630000D01*
X119695686Y-126630000D01*
X119700080Y-126625606D01*
X119752741Y-126534394D01*
X119780000Y-126432661D01*
X119780000Y-126327339D01*
X119752741Y-126225606D01*
X119700080Y-126134394D01*
X119695686Y-126130000D01*
X121604314Y-126130000D01*
X121599920Y-126134394D01*
G37*
%TD.AperFunction*%
%TA.AperFunction,Conductor*%
G36*
X79811836Y-120008178D02*
G01*
X84539356Y-124735698D01*
X84572841Y-124797021D01*
X84567857Y-124866713D01*
X84525985Y-124922646D01*
X84499131Y-124937939D01*
X84471140Y-124949534D01*
X84256346Y-125081160D01*
X84256343Y-125081161D01*
X84064776Y-125244776D01*
X83901161Y-125436343D01*
X83901160Y-125436346D01*
X83851751Y-125516974D01*
X83799939Y-125563849D01*
X83731009Y-125575272D01*
X83666847Y-125547614D01*
X83658343Y-125539865D01*
X83498820Y-125380342D01*
X83312482Y-125249865D01*
X83106328Y-125153734D01*
X82910000Y-125101127D01*
X82910000Y-126064314D01*
X82905606Y-126059920D01*
X82814394Y-126007259D01*
X82712661Y-125980000D01*
X82607339Y-125980000D01*
X82505606Y-126007259D01*
X82414394Y-126059920D01*
X82410000Y-126064314D01*
X82410000Y-125101127D01*
X82213671Y-125153734D01*
X82007517Y-125249865D01*
X81821179Y-125380342D01*
X81660342Y-125541179D01*
X81529865Y-125727517D01*
X81502382Y-125786457D01*
X81456210Y-125838896D01*
X81389016Y-125858048D01*
X81322135Y-125837832D01*
X81277618Y-125786457D01*
X81250134Y-125727517D01*
X81119657Y-125541179D01*
X80958820Y-125380342D01*
X80772482Y-125249865D01*
X80566328Y-125153734D01*
X80370000Y-125101127D01*
X80370000Y-126064314D01*
X80365606Y-126059920D01*
X80274394Y-126007259D01*
X80172661Y-125980000D01*
X80067339Y-125980000D01*
X79965606Y-126007259D01*
X79874394Y-126059920D01*
X79870000Y-126064314D01*
X79870000Y-125101127D01*
X79673671Y-125153734D01*
X79467517Y-125249865D01*
X79281183Y-125380339D01*
X79121656Y-125539866D01*
X79060333Y-125573350D01*
X78990641Y-125568366D01*
X78934708Y-125526494D01*
X78928247Y-125516973D01*
X78927981Y-125516539D01*
X78878836Y-125436341D01*
X78715224Y-125244776D01*
X78547033Y-125101127D01*
X78523656Y-125081161D01*
X78523653Y-125081160D01*
X78308859Y-124949533D01*
X78076110Y-124853126D01*
X77831151Y-124794317D01*
X77580000Y-124774551D01*
X77328848Y-124794317D01*
X77083889Y-124853126D01*
X76851140Y-124949533D01*
X76636346Y-125081160D01*
X76636343Y-125081161D01*
X76444776Y-125244776D01*
X76404290Y-125292179D01*
X76345783Y-125330372D01*
X76275915Y-125330870D01*
X76216869Y-125293516D01*
X76215710Y-125292179D01*
X76213687Y-125289810D01*
X76175224Y-125244776D01*
X76175222Y-125244774D01*
X76172060Y-125241072D01*
X76173332Y-125239985D01*
X76143334Y-125185048D01*
X76140500Y-125158690D01*
X76140500Y-123967204D01*
X76160185Y-123900165D01*
X76176819Y-123879523D01*
X77699659Y-122356683D01*
X79339414Y-120716928D01*
X79441232Y-120576788D01*
X79519873Y-120422445D01*
X79573402Y-120257701D01*
X79600500Y-120086611D01*
X79600500Y-120086591D01*
X79600537Y-120086133D01*
X79600602Y-120085959D01*
X79601262Y-120081799D01*
X79602135Y-120081937D01*
X79625419Y-120020844D01*
X79681650Y-119979372D01*
X79751375Y-119974884D01*
X79811836Y-120008178D01*
G37*
%TD.AperFunction*%
%TA.AperFunction,Conductor*%
G36*
X96483130Y-91005090D02*
G01*
X96484216Y-91006342D01*
X96529790Y-91059703D01*
X96549601Y-91082899D01*
X96736979Y-91242935D01*
X96736981Y-91242936D01*
X96947079Y-91371684D01*
X97174735Y-91465982D01*
X97174736Y-91465982D01*
X97174738Y-91465983D01*
X97264401Y-91487509D01*
X97307958Y-91497966D01*
X97368550Y-91532757D01*
X97400714Y-91594783D01*
X97401484Y-91599142D01*
X97423856Y-91740391D01*
X97426598Y-91757701D01*
X97480127Y-91922445D01*
X97558768Y-92076788D01*
X97660586Y-92216928D01*
X97660588Y-92216930D01*
X125863181Y-120419523D01*
X125896666Y-120480846D01*
X125899500Y-120507204D01*
X125899500Y-125158690D01*
X125879815Y-125225729D01*
X125867650Y-125240824D01*
X125867940Y-125241072D01*
X125864777Y-125244774D01*
X125864776Y-125244776D01*
X125826313Y-125289810D01*
X125824290Y-125292179D01*
X125765783Y-125330372D01*
X125695915Y-125330870D01*
X125636869Y-125293516D01*
X125635710Y-125292179D01*
X125595224Y-125244776D01*
X125427033Y-125101127D01*
X125403656Y-125081161D01*
X125403653Y-125081160D01*
X125188859Y-124949533D01*
X124956110Y-124853126D01*
X124711151Y-124794317D01*
X124460000Y-124774551D01*
X124208848Y-124794317D01*
X123963889Y-124853126D01*
X123731140Y-124949533D01*
X123516346Y-125081160D01*
X123516343Y-125081161D01*
X123324776Y-125244776D01*
X123161161Y-125436343D01*
X123161160Y-125436346D01*
X123111751Y-125516974D01*
X123059939Y-125563849D01*
X122991009Y-125575272D01*
X122926847Y-125547614D01*
X122918343Y-125539865D01*
X122758820Y-125380342D01*
X122572482Y-125249865D01*
X122366328Y-125153734D01*
X122170000Y-125101127D01*
X122170000Y-126064314D01*
X122165606Y-126059920D01*
X122074394Y-126007259D01*
X121972661Y-125980000D01*
X121867339Y-125980000D01*
X121765606Y-126007259D01*
X121674394Y-126059920D01*
X121670000Y-126064314D01*
X121670000Y-125101127D01*
X121473671Y-125153734D01*
X121267517Y-125249865D01*
X121081179Y-125380342D01*
X120920342Y-125541179D01*
X120789865Y-125727517D01*
X120762382Y-125786457D01*
X120716210Y-125838896D01*
X120649016Y-125858048D01*
X120582135Y-125837832D01*
X120537618Y-125786457D01*
X120510134Y-125727517D01*
X120379657Y-125541179D01*
X120218820Y-125380342D01*
X120032482Y-125249865D01*
X119826328Y-125153734D01*
X119630000Y-125101127D01*
X119630000Y-126064314D01*
X119625606Y-126059920D01*
X119534394Y-126007259D01*
X119432661Y-125980000D01*
X119327339Y-125980000D01*
X119225606Y-126007259D01*
X119134394Y-126059920D01*
X119130000Y-126064314D01*
X119130000Y-125101127D01*
X118933671Y-125153734D01*
X118727517Y-125249865D01*
X118541183Y-125380339D01*
X118381656Y-125539866D01*
X118320333Y-125573350D01*
X118250641Y-125568366D01*
X118194708Y-125526494D01*
X118188247Y-125516973D01*
X118187981Y-125516539D01*
X118138836Y-125436341D01*
X117975224Y-125244776D01*
X117807033Y-125101127D01*
X117783656Y-125081161D01*
X117783653Y-125081160D01*
X117568859Y-124949533D01*
X117336110Y-124853126D01*
X117091151Y-124794317D01*
X116840000Y-124774551D01*
X116588848Y-124794317D01*
X116343889Y-124853126D01*
X116111140Y-124949533D01*
X115896346Y-125081160D01*
X115896343Y-125081161D01*
X115704776Y-125244776D01*
X115664290Y-125292179D01*
X115605783Y-125330372D01*
X115535915Y-125330870D01*
X115476869Y-125293516D01*
X115475710Y-125292179D01*
X115473687Y-125289810D01*
X115435224Y-125244776D01*
X115435222Y-125244774D01*
X115432060Y-125241072D01*
X115433332Y-125239985D01*
X115403334Y-125185048D01*
X115400500Y-125158690D01*
X115400500Y-124707204D01*
X115420185Y-124640165D01*
X115436819Y-124619523D01*
X115833280Y-124223062D01*
X116339414Y-123716928D01*
X116441232Y-123576788D01*
X116519873Y-123422446D01*
X116573402Y-123257701D01*
X116600500Y-123086611D01*
X116600500Y-122913390D01*
X116600500Y-113413389D01*
X116600500Y-113413384D01*
X116585960Y-113321588D01*
X116585960Y-113321583D01*
X116581251Y-113291853D01*
X116573403Y-113242299D01*
X116519873Y-113077555D01*
X116515613Y-113069195D01*
X116511184Y-113060501D01*
X116511182Y-113060499D01*
X116481562Y-113002365D01*
X116441232Y-112923212D01*
X116441230Y-112923209D01*
X116441229Y-112923207D01*
X116386021Y-112847221D01*
X116339414Y-112783072D01*
X116216928Y-112660586D01*
X95290895Y-91734553D01*
X95257410Y-91673230D01*
X95262394Y-91603538D01*
X95304266Y-91547605D01*
X95361149Y-91526176D01*
X95360847Y-91524268D01*
X95365644Y-91523507D01*
X95365655Y-91523507D01*
X95605262Y-91465983D01*
X95832920Y-91371684D01*
X96043023Y-91242933D01*
X96230399Y-91082899D01*
X96295711Y-91006427D01*
X96354216Y-90968236D01*
X96424084Y-90967736D01*
X96483130Y-91005090D01*
G37*
%TD.AperFunction*%
%TA.AperFunction,Conductor*%
G36*
X63050770Y-106107112D02*
G01*
X76855977Y-119912319D01*
X76889462Y-119973642D01*
X76884478Y-120043334D01*
X76855977Y-120087681D01*
X74357069Y-122586589D01*
X74295746Y-122620074D01*
X74226054Y-122615090D01*
X74170121Y-122573218D01*
X74145704Y-122507754D01*
X74145388Y-122498908D01*
X74145388Y-121655043D01*
X74145387Y-121655039D01*
X74130257Y-121520750D01*
X74130256Y-121520745D01*
X74070676Y-121350476D01*
X73974703Y-121197737D01*
X73847148Y-121070182D01*
X73847143Y-121070178D01*
X73831187Y-121060152D01*
X73784897Y-121007817D01*
X73774250Y-120938763D01*
X73777386Y-120923066D01*
X73830028Y-120726606D01*
X73830029Y-120726599D01*
X73849854Y-120500002D01*
X73849854Y-120499997D01*
X73830029Y-120273400D01*
X73830027Y-120273389D01*
X73771157Y-120053682D01*
X73771152Y-120053668D01*
X73675024Y-119847521D01*
X73675020Y-119847513D01*
X73623913Y-119774526D01*
X72944888Y-120453551D01*
X72944888Y-120447339D01*
X72917629Y-120345606D01*
X72864968Y-120254394D01*
X72790494Y-120179920D01*
X72699282Y-120127259D01*
X72597549Y-120100000D01*
X72591336Y-120100000D01*
X73270360Y-119420974D01*
X73197366Y-119369863D01*
X72991219Y-119273735D01*
X72991205Y-119273730D01*
X72771498Y-119214860D01*
X72771487Y-119214858D01*
X72544890Y-119195034D01*
X72544886Y-119195034D01*
X72318288Y-119214858D01*
X72318277Y-119214860D01*
X72098570Y-119273730D01*
X72098561Y-119273734D01*
X71892404Y-119369866D01*
X71892400Y-119369868D01*
X71819414Y-119420973D01*
X71819414Y-119420974D01*
X72498441Y-120100000D01*
X72492227Y-120100000D01*
X72390494Y-120127259D01*
X72299282Y-120179920D01*
X72224808Y-120254394D01*
X72172147Y-120345606D01*
X72144888Y-120447339D01*
X72144888Y-120453552D01*
X71465862Y-119774526D01*
X71465861Y-119774526D01*
X71414756Y-119847512D01*
X71412083Y-119852144D01*
X71361517Y-119900361D01*
X71292910Y-119913586D01*
X71228045Y-119887620D01*
X71217013Y-119877828D01*
X62836819Y-111497634D01*
X62803334Y-111436311D01*
X62800500Y-111409953D01*
X62800500Y-106380724D01*
X62804725Y-106348631D01*
X62835063Y-106235408D01*
X62839562Y-106183984D01*
X62865012Y-106118918D01*
X62921603Y-106077939D01*
X62991365Y-106074060D01*
X63050770Y-106107112D01*
G37*
%TD.AperFunction*%
%TA.AperFunction,Conductor*%
G36*
X62370000Y-54830633D02*
G01*
X62583483Y-54773433D01*
X62583492Y-54773429D01*
X62797578Y-54673600D01*
X62991082Y-54538105D01*
X63108850Y-54420338D01*
X63170173Y-54386853D01*
X63239865Y-54391837D01*
X63295798Y-54433709D01*
X63302258Y-54443229D01*
X63320584Y-54473135D01*
X63320585Y-54473137D01*
X63372631Y-54534075D01*
X63489311Y-54670689D01*
X63516032Y-54693511D01*
X63554224Y-54752016D01*
X63559500Y-54787800D01*
X63559500Y-59599110D01*
X63583023Y-59747634D01*
X63586598Y-59770201D01*
X63640127Y-59934945D01*
X63718768Y-60089288D01*
X63820586Y-60229428D01*
X66773722Y-63182565D01*
X66807207Y-63243887D01*
X66802223Y-63313579D01*
X66760351Y-63369512D01*
X66738446Y-63382627D01*
X66545084Y-63472793D01*
X66479657Y-63518604D01*
X67042424Y-64081371D01*
X66983147Y-64097255D01*
X66866853Y-64164398D01*
X66771898Y-64259353D01*
X66704755Y-64375647D01*
X66688871Y-64434924D01*
X66125648Y-63871701D01*
X66058863Y-63858279D01*
X66010829Y-63813308D01*
X65910436Y-63649481D01*
X65910435Y-63649479D01*
X65874280Y-63607148D01*
X65750399Y-63462101D01*
X65626516Y-63356295D01*
X65563020Y-63302064D01*
X65563018Y-63302063D01*
X65352920Y-63173315D01*
X65125264Y-63079017D01*
X64941608Y-63034926D01*
X64885655Y-63021493D01*
X64731984Y-63009398D01*
X64670409Y-63004552D01*
X64605121Y-62979667D01*
X64592458Y-62968615D01*
X60716819Y-59092976D01*
X60683334Y-59031653D01*
X60680500Y-59005295D01*
X60680500Y-54787800D01*
X60700185Y-54720761D01*
X60723965Y-54693512D01*
X60750689Y-54670689D01*
X60919412Y-54473140D01*
X60937740Y-54443230D01*
X60989550Y-54396355D01*
X61058479Y-54384931D01*
X61122643Y-54412587D01*
X61131149Y-54420337D01*
X61248921Y-54538108D01*
X61442421Y-54673600D01*
X61656507Y-54773429D01*
X61656516Y-54773433D01*
X61870000Y-54830634D01*
X61870000Y-53933012D01*
X61927007Y-53965925D01*
X62054174Y-54000000D01*
X62185826Y-54000000D01*
X62312993Y-53965925D01*
X62370000Y-53933012D01*
X62370000Y-54830633D01*
G37*
%TD.AperFunction*%
%TA.AperFunction,Conductor*%
G36*
X54750000Y-54830633D02*
G01*
X54963483Y-54773433D01*
X54963492Y-54773429D01*
X55177578Y-54673600D01*
X55371082Y-54538105D01*
X55488850Y-54420338D01*
X55550173Y-54386853D01*
X55619865Y-54391837D01*
X55675798Y-54433709D01*
X55682258Y-54443229D01*
X55700584Y-54473135D01*
X55700585Y-54473137D01*
X55748510Y-54529249D01*
X55869311Y-54670689D01*
X56066860Y-54839412D01*
X56288372Y-54975154D01*
X56288374Y-54975154D01*
X56288376Y-54975156D01*
X56299629Y-54979817D01*
X56528390Y-55074573D01*
X56781006Y-55135221D01*
X57040000Y-55155604D01*
X57298994Y-55135221D01*
X57551610Y-55074573D01*
X57791628Y-54975154D01*
X58013140Y-54839412D01*
X58210689Y-54670689D01*
X58215710Y-54664809D01*
X58274213Y-54626617D01*
X58344081Y-54626116D01*
X58403128Y-54663468D01*
X58404197Y-54664702D01*
X58409311Y-54670689D01*
X58436032Y-54693511D01*
X58474224Y-54752016D01*
X58479500Y-54787800D01*
X58479500Y-59599110D01*
X58503023Y-59747634D01*
X58506598Y-59770201D01*
X58560127Y-59934945D01*
X58638768Y-60089288D01*
X58740586Y-60229428D01*
X58740588Y-60229430D01*
X61466144Y-62954987D01*
X61499629Y-63016310D01*
X61494645Y-63086002D01*
X61452773Y-63141935D01*
X61425916Y-63157229D01*
X61387079Y-63173315D01*
X61176981Y-63302063D01*
X61176979Y-63302064D01*
X60989601Y-63462101D01*
X60924290Y-63538571D01*
X60865783Y-63576764D01*
X60795916Y-63577263D01*
X60736869Y-63539909D01*
X60735710Y-63538571D01*
X60719889Y-63520047D01*
X60670399Y-63462101D01*
X60546516Y-63356295D01*
X60483020Y-63302064D01*
X60483018Y-63302063D01*
X60272920Y-63173315D01*
X60045264Y-63079017D01*
X59805658Y-63021493D01*
X59560000Y-63002159D01*
X59314341Y-63021493D01*
X59074735Y-63079017D01*
X58847079Y-63173315D01*
X58636981Y-63302063D01*
X58636979Y-63302064D01*
X58449601Y-63462101D01*
X58384290Y-63538571D01*
X58325783Y-63576764D01*
X58255916Y-63577263D01*
X58196869Y-63539909D01*
X58195710Y-63538571D01*
X58179889Y-63520047D01*
X58130399Y-63462101D01*
X58006516Y-63356295D01*
X57943020Y-63302064D01*
X57943018Y-63302063D01*
X57732920Y-63173315D01*
X57505264Y-63079017D01*
X57265658Y-63021493D01*
X57020000Y-63002159D01*
X56774341Y-63021493D01*
X56534735Y-63079017D01*
X56307079Y-63173315D01*
X56096981Y-63302063D01*
X56096979Y-63302064D01*
X55909601Y-63462101D01*
X55844290Y-63538571D01*
X55785783Y-63576764D01*
X55715916Y-63577263D01*
X55656869Y-63539909D01*
X55655710Y-63538571D01*
X55639889Y-63520047D01*
X55590399Y-63462101D01*
X55466516Y-63356295D01*
X55403020Y-63302064D01*
X55403018Y-63302063D01*
X55192919Y-63173315D01*
X55192916Y-63173313D01*
X54965266Y-63079018D01*
X54965262Y-63079017D01*
X54815614Y-63043089D01*
X54756882Y-63010197D01*
X53836819Y-62090134D01*
X53803334Y-62028811D01*
X53800500Y-62002453D01*
X53800500Y-54858019D01*
X53820185Y-54790980D01*
X53872989Y-54745225D01*
X53942147Y-54735281D01*
X53976905Y-54745637D01*
X54036507Y-54773429D01*
X54036516Y-54773433D01*
X54250000Y-54830634D01*
X54250000Y-53933012D01*
X54307007Y-53965925D01*
X54434174Y-54000000D01*
X54565826Y-54000000D01*
X54692993Y-53965925D01*
X54750000Y-53933012D01*
X54750000Y-54830633D01*
G37*
%TD.AperFunction*%
%TA.AperFunction,Conductor*%
G36*
X83330000Y-54830633D02*
G01*
X83543483Y-54773433D01*
X83543492Y-54773429D01*
X83757578Y-54673600D01*
X83951082Y-54538105D01*
X84068850Y-54420338D01*
X84130173Y-54386853D01*
X84199865Y-54391837D01*
X84255798Y-54433709D01*
X84262258Y-54443229D01*
X84280584Y-54473135D01*
X84280585Y-54473137D01*
X84332631Y-54534075D01*
X84449311Y-54670689D01*
X84476032Y-54693511D01*
X84514224Y-54752016D01*
X84519500Y-54787800D01*
X84519500Y-58325295D01*
X84499815Y-58392334D01*
X84483181Y-58412976D01*
X79927541Y-62968615D01*
X79866218Y-63002100D01*
X79849590Y-63004552D01*
X79777870Y-63010197D01*
X79634345Y-63021493D01*
X79634341Y-63021494D01*
X79394733Y-63079017D01*
X79271952Y-63129875D01*
X79202483Y-63137344D01*
X79140004Y-63106069D01*
X79104352Y-63045980D01*
X79100500Y-63015314D01*
X79100500Y-55198421D01*
X79120185Y-55131382D01*
X79172989Y-55085627D01*
X79183542Y-55081380D01*
X79199522Y-55075789D01*
X79352262Y-54979816D01*
X79451737Y-54880340D01*
X79513056Y-54846858D01*
X79582748Y-54851842D01*
X79604205Y-54862297D01*
X79788371Y-54975154D01*
X79848353Y-54999999D01*
X80028390Y-55074573D01*
X80281006Y-55135221D01*
X80540000Y-55155604D01*
X80798994Y-55135221D01*
X81051610Y-55074573D01*
X81291628Y-54975154D01*
X81513140Y-54839412D01*
X81710689Y-54670689D01*
X81879412Y-54473140D01*
X81897740Y-54443230D01*
X81949550Y-54396355D01*
X82018479Y-54384931D01*
X82082643Y-54412587D01*
X82091149Y-54420337D01*
X82208921Y-54538108D01*
X82402421Y-54673600D01*
X82616507Y-54773429D01*
X82616516Y-54773433D01*
X82830000Y-54830634D01*
X82830000Y-53933012D01*
X82887007Y-53965925D01*
X83014174Y-54000000D01*
X83145826Y-54000000D01*
X83272993Y-53965925D01*
X83330000Y-53933012D01*
X83330000Y-54830633D01*
G37*
%TD.AperFunction*%
%TA.AperFunction,Conductor*%
G36*
X55682539Y-48320185D02*
G01*
X55728294Y-48372989D01*
X55739500Y-48424500D01*
X55739500Y-52435553D01*
X55719815Y-52502592D01*
X55709793Y-52516081D01*
X55700593Y-52526853D01*
X55700585Y-52526863D01*
X55682258Y-52556771D01*
X55630445Y-52603646D01*
X55561515Y-52615067D01*
X55497353Y-52587410D01*
X55488850Y-52579662D01*
X55371078Y-52461891D01*
X55177578Y-52326399D01*
X54963492Y-52226570D01*
X54963486Y-52226567D01*
X54750000Y-52169364D01*
X54750000Y-53066988D01*
X54692993Y-53034075D01*
X54565826Y-53000000D01*
X54434174Y-53000000D01*
X54307007Y-53034075D01*
X54250000Y-53066988D01*
X54250000Y-52169364D01*
X54249999Y-52169364D01*
X54036513Y-52226567D01*
X54036507Y-52226570D01*
X53976905Y-52254363D01*
X53907827Y-52264855D01*
X53844043Y-52236335D01*
X53805804Y-52177859D01*
X53800500Y-52141981D01*
X53800500Y-48424500D01*
X53820185Y-48357461D01*
X53872989Y-48311706D01*
X53924500Y-48300500D01*
X55615500Y-48300500D01*
X55682539Y-48320185D01*
G37*
%TD.AperFunction*%
%TA.AperFunction,Conductor*%
G36*
X68382539Y-48320185D02*
G01*
X68428294Y-48372989D01*
X68439500Y-48424500D01*
X68439500Y-51919190D01*
X68419815Y-51986229D01*
X68392815Y-52016135D01*
X68387742Y-52020180D01*
X68288265Y-52119657D01*
X68226942Y-52153141D01*
X68157250Y-52148157D01*
X68135798Y-52137705D01*
X67951628Y-52024846D01*
X67951627Y-52024845D01*
X67951623Y-52024843D01*
X67769317Y-51949330D01*
X67711610Y-51925427D01*
X67711611Y-51925427D01*
X67524389Y-51880479D01*
X67458994Y-51864779D01*
X67458992Y-51864778D01*
X67458991Y-51864778D01*
X67200000Y-51844396D01*
X66941009Y-51864778D01*
X66688389Y-51925427D01*
X66448376Y-52024843D01*
X66226859Y-52160588D01*
X66032719Y-52326400D01*
X66029311Y-52329311D01*
X66024287Y-52335193D01*
X65965781Y-52373383D01*
X65895913Y-52373881D01*
X65836868Y-52336526D01*
X65835767Y-52335256D01*
X65830689Y-52329311D01*
X65633140Y-52160588D01*
X65411628Y-52024846D01*
X65411627Y-52024845D01*
X65411623Y-52024843D01*
X65229317Y-51949330D01*
X65171610Y-51925427D01*
X65171611Y-51925427D01*
X64984389Y-51880479D01*
X64918994Y-51864779D01*
X64918992Y-51864778D01*
X64918991Y-51864778D01*
X64660000Y-51844396D01*
X64401009Y-51864778D01*
X64148389Y-51925427D01*
X63908376Y-52024843D01*
X63686859Y-52160588D01*
X63489311Y-52329311D01*
X63320586Y-52526861D01*
X63302258Y-52556771D01*
X63250445Y-52603646D01*
X63181515Y-52615067D01*
X63117353Y-52587410D01*
X63108850Y-52579662D01*
X62991078Y-52461891D01*
X62797578Y-52326399D01*
X62583492Y-52226570D01*
X62583486Y-52226567D01*
X62370000Y-52169364D01*
X62370000Y-53066988D01*
X62312993Y-53034075D01*
X62185826Y-53000000D01*
X62054174Y-53000000D01*
X61927007Y-53034075D01*
X61870000Y-53066988D01*
X61870000Y-52169364D01*
X61869999Y-52169364D01*
X61656513Y-52226567D01*
X61656507Y-52226570D01*
X61442422Y-52326399D01*
X61442420Y-52326400D01*
X61248926Y-52461886D01*
X61131150Y-52579662D01*
X61069827Y-52613146D01*
X61000135Y-52608162D01*
X60944202Y-52566290D01*
X60937742Y-52556771D01*
X60919413Y-52526861D01*
X60871485Y-52470745D01*
X60750689Y-52329311D01*
X60553140Y-52160588D01*
X60331628Y-52024846D01*
X60331627Y-52024845D01*
X60331623Y-52024843D01*
X60149317Y-51949330D01*
X60091610Y-51925427D01*
X60091611Y-51925427D01*
X59904389Y-51880479D01*
X59838994Y-51864779D01*
X59838992Y-51864778D01*
X59838991Y-51864778D01*
X59580000Y-51844396D01*
X59321009Y-51864778D01*
X59068389Y-51925427D01*
X58828376Y-52024843D01*
X58606860Y-52160588D01*
X58545031Y-52213395D01*
X58481270Y-52241965D01*
X58412184Y-52231527D01*
X58359708Y-52185397D01*
X58340500Y-52119104D01*
X58340500Y-48424500D01*
X58360185Y-48357461D01*
X58412989Y-48311706D01*
X58464500Y-48300500D01*
X68315500Y-48300500D01*
X68382539Y-48320185D01*
G37*
%TD.AperFunction*%
%TA.AperFunction,Conductor*%
G36*
X86802539Y-48320185D02*
G01*
X86848294Y-48372989D01*
X86859500Y-48424500D01*
X86859500Y-52119104D01*
X86839815Y-52186143D01*
X86787011Y-52231898D01*
X86717853Y-52241842D01*
X86654969Y-52213395D01*
X86622679Y-52185817D01*
X86593140Y-52160588D01*
X86371628Y-52024846D01*
X86371627Y-52024845D01*
X86371623Y-52024843D01*
X86189317Y-51949330D01*
X86131610Y-51925427D01*
X86131611Y-51925427D01*
X85944389Y-51880479D01*
X85878994Y-51864779D01*
X85878992Y-51864778D01*
X85878991Y-51864778D01*
X85620000Y-51844396D01*
X85361009Y-51864778D01*
X85108389Y-51925427D01*
X84868376Y-52024843D01*
X84646859Y-52160588D01*
X84449311Y-52329311D01*
X84280586Y-52526861D01*
X84262258Y-52556771D01*
X84210445Y-52603646D01*
X84141515Y-52615067D01*
X84077353Y-52587410D01*
X84068850Y-52579662D01*
X83951078Y-52461891D01*
X83757578Y-52326399D01*
X83543492Y-52226570D01*
X83543486Y-52226567D01*
X83330000Y-52169364D01*
X83330000Y-53066988D01*
X83272993Y-53034075D01*
X83145826Y-53000000D01*
X83014174Y-53000000D01*
X82887007Y-53034075D01*
X82830000Y-53066988D01*
X82830000Y-52169364D01*
X82829999Y-52169364D01*
X82616513Y-52226567D01*
X82616507Y-52226570D01*
X82402422Y-52326399D01*
X82402420Y-52326400D01*
X82208926Y-52461886D01*
X82091149Y-52579663D01*
X82029826Y-52613147D01*
X81960134Y-52608163D01*
X81904201Y-52566291D01*
X81897741Y-52556771D01*
X81879412Y-52526860D01*
X81879202Y-52526614D01*
X81870207Y-52516081D01*
X81841639Y-52452319D01*
X81840500Y-52435553D01*
X81840500Y-48424500D01*
X81860185Y-48357461D01*
X81912989Y-48311706D01*
X81964500Y-48300500D01*
X86735500Y-48300500D01*
X86802539Y-48320185D01*
G37*
%TD.AperFunction*%
%TA.AperFunction,Conductor*%
G36*
X94422539Y-48320185D02*
G01*
X94468294Y-48372989D01*
X94479500Y-48424500D01*
X94479500Y-52119104D01*
X94459815Y-52186143D01*
X94407011Y-52231898D01*
X94337853Y-52241842D01*
X94274969Y-52213395D01*
X94242679Y-52185817D01*
X94213140Y-52160588D01*
X93991628Y-52024846D01*
X93991627Y-52024845D01*
X93991623Y-52024843D01*
X93809317Y-51949330D01*
X93751610Y-51925427D01*
X93751611Y-51925427D01*
X93564389Y-51880479D01*
X93498994Y-51864779D01*
X93498992Y-51864778D01*
X93498991Y-51864778D01*
X93240000Y-51844396D01*
X92981009Y-51864778D01*
X92728389Y-51925427D01*
X92488376Y-52024843D01*
X92266859Y-52160588D01*
X92069311Y-52329311D01*
X91900586Y-52526861D01*
X91882258Y-52556771D01*
X91830445Y-52603646D01*
X91761515Y-52615067D01*
X91697353Y-52587410D01*
X91688850Y-52579662D01*
X91571078Y-52461891D01*
X91377578Y-52326399D01*
X91163492Y-52226570D01*
X91163486Y-52226567D01*
X90950000Y-52169364D01*
X90950000Y-53066988D01*
X90892993Y-53034075D01*
X90765826Y-53000000D01*
X90634174Y-53000000D01*
X90507007Y-53034075D01*
X90450000Y-53066988D01*
X90450000Y-52169364D01*
X90449999Y-52169364D01*
X90236513Y-52226567D01*
X90236507Y-52226570D01*
X90022422Y-52326399D01*
X90022420Y-52326400D01*
X89828926Y-52461886D01*
X89711149Y-52579663D01*
X89649826Y-52613147D01*
X89580134Y-52608163D01*
X89524201Y-52566291D01*
X89517741Y-52556771D01*
X89499412Y-52526860D01*
X89499202Y-52526614D01*
X89490207Y-52516081D01*
X89461639Y-52452319D01*
X89460500Y-52435553D01*
X89460500Y-48424500D01*
X89480185Y-48357461D01*
X89532989Y-48311706D01*
X89584500Y-48300500D01*
X94355500Y-48300500D01*
X94422539Y-48320185D01*
G37*
%TD.AperFunction*%
%TA.AperFunction,Conductor*%
G36*
X102042539Y-48320185D02*
G01*
X102088294Y-48372989D01*
X102099500Y-48424500D01*
X102099500Y-52119104D01*
X102079815Y-52186143D01*
X102027011Y-52231898D01*
X101957853Y-52241842D01*
X101894969Y-52213395D01*
X101862679Y-52185817D01*
X101833140Y-52160588D01*
X101611628Y-52024846D01*
X101611627Y-52024845D01*
X101611623Y-52024843D01*
X101429317Y-51949330D01*
X101371610Y-51925427D01*
X101371611Y-51925427D01*
X101184389Y-51880479D01*
X101118994Y-51864779D01*
X101118992Y-51864778D01*
X101118991Y-51864778D01*
X100860000Y-51844396D01*
X100601009Y-51864778D01*
X100348389Y-51925427D01*
X100108376Y-52024843D01*
X99886859Y-52160588D01*
X99689311Y-52329311D01*
X99520586Y-52526861D01*
X99502258Y-52556771D01*
X99450445Y-52603646D01*
X99381515Y-52615067D01*
X99317353Y-52587410D01*
X99308850Y-52579662D01*
X99191078Y-52461891D01*
X98997578Y-52326399D01*
X98783492Y-52226570D01*
X98783486Y-52226567D01*
X98570000Y-52169364D01*
X98570000Y-53066988D01*
X98512993Y-53034075D01*
X98385826Y-53000000D01*
X98254174Y-53000000D01*
X98127007Y-53034075D01*
X98070000Y-53066988D01*
X98070000Y-52169364D01*
X98069999Y-52169364D01*
X97856513Y-52226567D01*
X97856507Y-52226570D01*
X97642422Y-52326399D01*
X97642420Y-52326400D01*
X97448926Y-52461886D01*
X97331149Y-52579663D01*
X97269826Y-52613147D01*
X97200134Y-52608163D01*
X97144201Y-52566291D01*
X97137741Y-52556771D01*
X97119412Y-52526860D01*
X97119202Y-52526614D01*
X97110207Y-52516081D01*
X97081639Y-52452319D01*
X97080500Y-52435553D01*
X97080500Y-48424500D01*
X97100185Y-48357461D01*
X97152989Y-48311706D01*
X97204500Y-48300500D01*
X101975500Y-48300500D01*
X102042539Y-48320185D01*
G37*
%TD.AperFunction*%
%TD*%
M02*
