M48
; DRILL file {KiCad 8.0.5} date 2024-09-23T14:04:56-0500
; FORMAT={-:-/ absolute / inch / decimal}
; #@! TF.CreationDate,2024-09-23T14:04:56-05:00
; #@! TF.GenerationSoftware,Kicad,Pcbnew,8.0.5
; #@! TF.FileFunction,Plated,1,2,PTH
FMAT,2
INCH
; #@! TA.AperFunction,Plated,PTH,ViaDrill
T1C0.0256
; #@! TA.AperFunction,Plated,PTH,ComponentDrill
T2C0.0300
; #@! TA.AperFunction,Plated,PTH,ComponentDrill
T3C0.0315
; #@! TA.AperFunction,Plated,PTH,ComponentDrill
T4C0.0394
; #@! TA.AperFunction,Plated,PTH,ComponentDrill
T5C0.0402
; #@! TA.AperFunction,Plated,PTH,ComponentDrill
T6C0.0598
%
G90
G05
T1
X2.1457Y-2.2638
X2.4213Y-4.1732
X2.4409Y-2.2638
X2.4606Y-1.9488
X2.5591Y-4.9606
X2.5591Y-5.315
X3.1496Y-4.8622
X3.1496Y-5.374
X3.2087Y-2.2441
X3.3997Y-1.9882
X3.4252Y-4.1339
X3.5827Y-1.9882
X3.8386Y-4.7441
X3.878Y-1.9882
X4.0354Y-4.0945
X4.1732Y-1.9882
X4.685Y-5.4134
X4.7047Y-4.8228
X5.1181Y-4.1142
T2
X4.9437Y-3.0177
X4.9437Y-3.1177
X4.9437Y-3.2177
X4.9437Y-3.3177
X4.9437Y-3.4177
X4.9437Y-3.5177
T3
X2.8543Y-4.9756
X2.8543Y-5.2756
X2.8561Y-4.7441
X2.8561Y-4.8228
X2.9543Y-4.9756
X2.9543Y-5.2756
X3.0543Y-4.9756
X3.0543Y-5.2756
X3.1543Y-4.9756
X3.1543Y-5.2756
X3.2543Y-4.9756
X3.2543Y-5.2756
X3.3543Y-4.9756
X3.3543Y-5.2756
X3.4543Y-4.9756
X3.4543Y-5.2756
X3.5543Y-4.9756
X3.5543Y-5.2756
X3.7205Y-5.3937
X3.7205Y-5.4724
X4.3701Y-4.7423
X4.3701Y-4.8211
X4.4Y-4.9756
X4.4Y-5.2756
X4.5Y-4.9756
X4.5Y-5.2756
X4.6Y-4.9756
X4.6Y-5.2756
X4.7Y-4.9756
X4.7Y-5.2756
X4.8Y-4.9756
X4.8Y-5.2756
X4.9Y-4.9756
X4.9Y-5.2756
X5.0Y-4.9756
X5.0Y-5.2756
X5.1Y-4.9756
X5.1Y-5.2756
X5.2559Y-5.3937
X5.2559Y-5.4724
T4
X2.1457Y-2.1063
X2.2457Y-2.1063
X2.3457Y-2.1063
X2.4457Y-2.1063
X2.5457Y-2.1063
X2.6457Y-2.1063
X2.7457Y-2.1063
X3.0709Y-2.1063
X3.1709Y-2.1063
X3.2709Y-2.1063
X3.3709Y-2.1063
X3.4709Y-2.1063
X3.5709Y-2.1063
X3.6709Y-2.1063
X3.7709Y-2.1063
X3.8709Y-2.1063
X3.9709Y-2.1063
X4.0709Y-2.1063
X4.1709Y-2.1063
T5
X2.1449Y-2.5422
X2.1449Y-3.5422
X2.2449Y-2.5422
X2.2449Y-3.5422
X2.3449Y-2.5422
X2.3449Y-3.5422
X2.4449Y-2.5422
X2.4449Y-3.5422
X2.5449Y-2.5422
X2.5449Y-3.5422
X2.6449Y-2.5422
X2.6449Y-3.5422
X2.7449Y-2.5422
X2.7449Y-3.5422
X2.8449Y-2.5422
X2.8449Y-3.5422
X2.9449Y-2.5422
X2.9449Y-3.5422
X3.0449Y-2.5422
X3.0449Y-3.5422
X3.1449Y-2.5422
X3.1449Y-3.5422
X3.2449Y-2.5422
X3.2449Y-3.5422
X3.3449Y-2.5422
X3.3449Y-3.5422
X3.4449Y-2.5422
X3.4449Y-3.5422
X3.5449Y-2.5422
X3.5449Y-3.5422
X3.6449Y-2.5422
X3.6449Y-3.5422
X3.7449Y-2.5422
X3.7449Y-3.5422
X3.8449Y-2.5422
X3.8449Y-3.5422
X3.9449Y-2.5422
X3.9449Y-3.5422
T6
X2.1654Y-4.7969
X2.1654Y-4.9969
X2.1654Y-5.1969
X2.1654Y-5.3969
X5.7874Y-4.7937
X5.7874Y-4.9937
X5.7874Y-5.1937
X5.7874Y-5.3937
X5.8268Y-2.5984
X5.8268Y-2.7984
T4
G00X4.9134Y-2.1654
M15
G01X4.9134Y-2.2441
M16
G05
G00X5.1378Y-2.0866
M15
G01X5.0591Y-2.0866
M16
G05
G00X5.1378Y-2.3228
M15
G01X5.0591Y-2.3228
M16
G05
M30
