%TF.GenerationSoftware,KiCad,Pcbnew,8.0.5*%
%TF.CreationDate,2024-09-23T14:05:06-05:00*%
%TF.ProjectId,LogicR,4c6f6769-6352-42e6-9b69-6361645f7063,rev?*%
%TF.SameCoordinates,Original*%
%TF.FileFunction,Soldermask,Top*%
%TF.FilePolarity,Negative*%
%FSLAX46Y46*%
G04 Gerber Fmt 4.6, Leading zero omitted, Abs format (unit mm)*
G04 Created by KiCad (PCBNEW 8.0.5) date 2024-09-23 14:05:06*
%MOMM*%
%LPD*%
G01*
G04 APERTURE LIST*
G04 Aperture macros list*
%AMRoundRect*
0 Rectangle with rounded corners*
0 $1 Rounding radius*
0 $2 $3 $4 $5 $6 $7 $8 $9 X,Y pos of 4 corners*
0 Add a 4 corners polygon primitive as box body*
4,1,4,$2,$3,$4,$5,$6,$7,$8,$9,$2,$3,0*
0 Add four circle primitives for the rounded corners*
1,1,$1+$1,$2,$3*
1,1,$1+$1,$4,$5*
1,1,$1+$1,$6,$7*
1,1,$1+$1,$8,$9*
0 Add four rect primitives between the rounded corners*
20,1,$1+$1,$2,$3,$4,$5,0*
20,1,$1+$1,$4,$5,$6,$7,0*
20,1,$1+$1,$6,$7,$8,$9,0*
20,1,$1+$1,$8,$9,$2,$3,0*%
G04 Aperture macros list end*
%ADD10R,1.600000X1.600000*%
%ADD11C,1.600000*%
%ADD12R,3.500000X3.500000*%
%ADD13RoundRect,0.750000X-1.000000X0.750000X-1.000000X-0.750000X1.000000X-0.750000X1.000000X0.750000X0*%
%ADD14RoundRect,0.875000X-0.875000X0.875000X-0.875000X-0.875000X0.875000X-0.875000X0.875000X0.875000X0*%
%ADD15O,1.600000X1.600000*%
%ADD16C,3.200000*%
%ADD17R,3.000000X3.000000*%
%ADD18C,3.000000*%
%ADD19C,1.524000*%
%ADD20R,1.700000X1.700000*%
%ADD21O,1.700000X1.700000*%
%ADD22RoundRect,0.102000X-0.765000X0.765000X-0.765000X-0.765000X0.765000X-0.765000X0.765000X0.765000X0*%
%ADD23C,1.734000*%
G04 APERTURE END LIST*
D10*
%TO.C,C4*%
X94500000Y-137000000D03*
D11*
X94500000Y-139000000D03*
%TD*%
D10*
%TO.C,C2*%
X111000000Y-122455112D03*
D11*
X111000000Y-120455112D03*
%TD*%
D12*
%TO.C,J9*%
X129500000Y-59000000D03*
D13*
X129500000Y-53000000D03*
D14*
X124800000Y-56000000D03*
%TD*%
D10*
%TO.C,U3*%
X72500000Y-134000000D03*
D15*
X75040000Y-134000000D03*
X77580000Y-134000000D03*
X80120000Y-134000000D03*
X82660000Y-134000000D03*
X85200000Y-134000000D03*
X87740000Y-134000000D03*
X90280000Y-134000000D03*
X90280000Y-126380000D03*
X87740000Y-126380000D03*
X85200000Y-126380000D03*
X82660000Y-126380000D03*
X80120000Y-126380000D03*
X77580000Y-126380000D03*
X75040000Y-126380000D03*
X72500000Y-126380000D03*
%TD*%
D10*
%TO.C,C1*%
X72544888Y-122500000D03*
D11*
X72544888Y-120500000D03*
%TD*%
D16*
%TO.C,REF\u002A\u002A*%
X101500000Y-146500000D03*
%TD*%
D17*
%TO.C,J11*%
X55000000Y-121840000D03*
D18*
X55000000Y-126920000D03*
X55000000Y-132000000D03*
X55000000Y-137080000D03*
%TD*%
D19*
%TO.C,U4*%
X125570000Y-76650000D03*
X125570000Y-79190000D03*
X125570000Y-81730000D03*
X125570000Y-84270000D03*
X125570000Y-86810000D03*
X125570000Y-89350000D03*
%TD*%
D20*
%TO.C,J1*%
X78000000Y-53500000D03*
D21*
X80540000Y-53500000D03*
X83080000Y-53500000D03*
X85620000Y-53500000D03*
X88160000Y-53500000D03*
X90700000Y-53500000D03*
X93240000Y-53500000D03*
X95780000Y-53500000D03*
X98320000Y-53500000D03*
X100860000Y-53500000D03*
X103400000Y-53500000D03*
X105940000Y-53500000D03*
%TD*%
D10*
%TO.C,C3*%
X133500000Y-137000000D03*
D11*
X133500000Y-139000000D03*
%TD*%
D18*
%TO.C,BT1*%
X148000000Y-66000000D03*
D17*
X148000000Y-71080000D03*
%TD*%
%TO.C,J10*%
X147000000Y-137000000D03*
D18*
X147000000Y-131920000D03*
X147000000Y-126840000D03*
X147000000Y-121760000D03*
%TD*%
D16*
%TO.C,REF\u002A\u002A*%
X143500000Y-52500000D03*
%TD*%
D10*
%TO.C,U2*%
X111760000Y-134000000D03*
D15*
X114300000Y-134000000D03*
X116840000Y-134000000D03*
X119380000Y-134000000D03*
X121920000Y-134000000D03*
X124460000Y-134000000D03*
X127000000Y-134000000D03*
X129540000Y-134000000D03*
X129540000Y-126380000D03*
X127000000Y-126380000D03*
X124460000Y-126380000D03*
X121920000Y-126380000D03*
X119380000Y-126380000D03*
X116840000Y-126380000D03*
X114300000Y-126380000D03*
X111760000Y-126380000D03*
%TD*%
D22*
%TO.C,U1*%
X100200000Y-64572500D03*
D23*
X97660000Y-64572500D03*
X95120000Y-64572500D03*
X92580000Y-64572500D03*
X90040000Y-64572500D03*
X87500000Y-64572500D03*
X84960000Y-64572500D03*
X82420000Y-64572500D03*
X79880000Y-64572500D03*
X77340000Y-64572500D03*
X74800000Y-64572500D03*
X72260000Y-64572500D03*
X69720000Y-64572500D03*
X67180000Y-64572500D03*
X64640000Y-64572500D03*
X62100000Y-64572500D03*
X59560000Y-64572500D03*
X57020000Y-64572500D03*
X54480000Y-64572500D03*
X54480000Y-89972500D03*
X57020000Y-89972500D03*
X59560000Y-89972500D03*
X62100000Y-89972500D03*
X64640000Y-89972500D03*
X67180000Y-89972500D03*
X69720000Y-89972500D03*
X72260000Y-89972500D03*
X74800000Y-89972500D03*
X77340000Y-89972500D03*
X79880000Y-89972500D03*
X82420000Y-89972500D03*
X84960000Y-89972500D03*
X87500000Y-89972500D03*
X90040000Y-89972500D03*
X92580000Y-89972500D03*
X95120000Y-89972500D03*
X97660000Y-89972500D03*
X100200000Y-89972500D03*
%TD*%
D20*
%TO.C,J2*%
X69740000Y-53500000D03*
D21*
X67200000Y-53500000D03*
X64660000Y-53500000D03*
X62120000Y-53500000D03*
X59580000Y-53500000D03*
X57040000Y-53500000D03*
X54500000Y-53500000D03*
%TD*%
M02*
